<svg width="17" height="17" viewBox="0 0 17 17" fill="none" xmlns="http://www.w3.org/2000/svg">
<path d="M8.5002 16.9086C6.83718 16.9086 5.2115 16.4155 3.82874 15.4915C2.44599 14.5676 1.36826 13.2544 0.731852 11.718C0.0954401 10.1815 -0.0710742 8.49087 0.253366 6.8598C0.577806 5.22873 1.37863 3.7305 2.55456 2.55456C3.7305 1.37863 5.22873 0.577806 6.8598 0.253366C8.49087 -0.0710742 10.1815 0.0954401 11.718 0.731852C13.2544 1.36826 14.5676 2.44599 15.4915 3.82874C16.4155 5.2115 16.9086 6.83718 16.9086 8.5002C16.9063 10.7295 16.0197 12.8669 14.4433 14.4433C12.8669 16.0197 10.7295 16.9063 8.5002 16.9086ZM8.5002 1.4646C7.10869 1.4646 5.74843 1.87723 4.59143 2.65031C3.43443 3.42339 2.53266 4.5222 2.00015 5.80779C1.46765 7.09338 1.32832 8.50801 1.59979 9.87278C1.87126 11.2375 2.54133 12.4912 3.52528 13.4751C4.50923 14.4591 5.76285 15.1291 7.12762 15.4006C8.4924 15.6721 9.90702 15.5328 11.1926 15.0002C12.4782 14.4677 13.577 13.566 14.3501 12.409C15.1232 11.252 15.5358 9.89171 15.5358 8.5002C15.5358 7.57627 15.3538 6.66139 15.0002 5.80779C14.6467 4.95419 14.1284 4.1786 13.4751 3.52528C12.8218 2.87196 12.0462 2.35373 11.1926 2.00015C10.339 1.64658 9.42413 1.4646 8.5002 1.4646ZM8.5002 13.7048C8.31816 13.7048 8.14357 13.6325 8.01484 13.5038C7.88612 13.3751 7.8138 13.2005 7.8138 13.0184V9.1866H3.98197C3.79993 9.1866 3.62534 9.11428 3.49661 8.98556C3.36789 8.85683 3.29557 8.68224 3.29557 8.5002C3.29557 8.31816 3.36789 8.14357 3.49661 8.01484C3.62534 7.88612 3.79993 7.8138 3.98197 7.8138H7.8138V3.98197C7.8138 3.79993 7.88612 3.62534 8.01484 3.49661C8.14357 3.36789 8.31816 3.29557 8.5002 3.29557C8.68224 3.29557 8.85683 3.36789 8.98556 3.49661C9.11428 3.62534 9.1866 3.79993 9.1866 3.98197V7.8138H13.0184C13.2005 7.8138 13.3751 7.88612 13.5038 8.01484C13.6325 8.14357 13.7048 8.31816 13.7048 8.5002C13.7048 8.68224 13.6325 8.85683 13.5038 8.98556C13.3751 9.11428 13.2005 9.1866 13.0184 9.1866H9.1866V13.0184C9.1866 13.2005 9.11428 13.3751 8.98556 13.5038C8.85683 13.6325 8.68224 13.7048 8.5002 13.7048Z" fill="#E47F46"/>
</svg>
