<svg width="32" height="32" viewBox="0 0 32 32" fill="none" xmlns="http://www.w3.org/2000/svg">
<rect width="32" height="32" fill="white"/>
<path d="M28.3738 24.5646C27.91 25.636 27.361 26.6223 26.725 27.529C25.858 28.7651 25.1482 29.6207 24.6011 30.0958C23.7531 30.8757 22.8445 31.2751 21.8715 31.2978C21.173 31.2978 20.3306 31.0991 19.3501 30.6959C18.3663 30.2946 17.4622 30.0958 16.6356 30.0958C15.7686 30.0958 14.8388 30.2946 13.8442 30.6959C12.8482 31.0991 12.0458 31.3092 11.4323 31.33C10.4992 31.3698 9.56922 30.959 8.64092 30.0958C8.04843 29.5791 7.30734 28.6932 6.41955 27.4381C5.46702 26.0979 4.6839 24.5438 4.0704 22.772C3.41336 20.8583 3.08398 19.0051 3.08398 17.2109C3.08398 15.1558 3.52807 13.3832 4.41757 11.8978C5.11663 10.7047 6.04663 9.76351 7.21061 9.07259C8.37458 8.38166 9.63225 8.02958 10.9867 8.00705C11.7277 8.00705 12.6996 8.23629 13.9073 8.68681C15.1116 9.13884 15.8848 9.36808 16.2239 9.36808C16.4773 9.36808 17.3364 9.10004 18.7926 8.56566C20.1697 8.07009 21.332 7.86489 22.2841 7.94572C24.8642 8.15394 26.8026 9.17102 28.0917 11.0034C25.7842 12.4015 24.6428 14.3598 24.6655 16.8719C24.6863 18.8286 25.3961 20.4569 26.7912 21.7498C27.4235 22.3499 28.1296 22.8137 28.9151 23.143C28.7448 23.6371 28.5649 24.1103 28.3738 24.5646ZM22.4564 1.27952C22.4564 2.81321 21.8961 4.2452 20.7792 5.57064C19.4315 7.14633 17.8013 8.05683 16.0334 7.91316C16.0109 7.72917 15.9979 7.53552 15.9979 7.33203C15.9979 5.85969 16.6388 4.28401 17.777 2.99567C18.3453 2.34336 19.068 1.80097 19.9445 1.3683C20.819 0.942086 21.6462 0.706379 22.4242 0.666016C22.4469 0.871045 22.4564 1.07609 22.4564 1.2795V1.27952Z" fill="#212121"/>
</svg>
