<svg width="63" height="63" viewBox="0 0 63 63" fill="none" xmlns="http://www.w3.org/2000/svg">
<path d="M49.5918 17.6193C49.2801 17.6193 48.9724 17.6022 48.6689 17.5703V23.417C48.6689 23.9267 49.082 24.3399 49.5918 24.3399C50.1016 24.3399 50.5146 23.9267 50.5146 23.417V17.5703C50.2081 17.6027 49.9001 17.6191 49.5918 17.6193Z" fill="#FED402"/>
<path d="M49.5924 17.7424C54.4918 17.7424 58.4636 13.7706 58.4636 8.87119C58.4636 3.97177 54.4918 0 49.5924 0C44.693 0 40.7212 3.97177 40.7212 8.87119C40.7212 13.7706 44.693 17.7424 49.5924 17.7424Z" fill="#FED402"/>
<path d="M44.397 8.87119C44.397 4.60208 47.413 1.03839 51.4302 0.19183C50.8259 0.0642945 50.21 4.74459e-06 49.5924 0C44.693 0 40.7212 3.97171 40.7212 8.87119C40.7212 13.7707 44.6929 17.7424 49.5924 17.7424C50.2227 17.7424 50.8372 17.6756 51.4303 17.5505C47.413 16.704 44.397 13.1403 44.397 8.87119Z" fill="#FAC600"/>
<path d="M51.215 7.9783H47.9716C47.7501 7.97807 47.5378 7.89 47.3812 7.73342C47.2246 7.57683 47.1365 7.36452 47.1362 7.14306V7.08953C47.1365 6.86805 47.2246 6.65571 47.3812 6.49908C47.5378 6.34246 47.7501 6.25434 47.9716 6.25404H51.8711C52.3809 6.25404 52.7939 5.84085 52.7939 5.33119C52.7939 4.82153 52.3809 4.40834 51.8711 4.40834H50.5146V3.99121C50.5146 3.48155 50.1015 3.06836 49.5918 3.06836C49.082 3.06836 48.6689 3.48155 48.6689 3.99121V4.40834H47.9716C46.4932 4.40834 45.2905 5.61112 45.2905 7.08953V7.14318C45.2908 8.62134 46.4934 9.824 47.9716 9.824H51.215C51.6738 9.824 52.0472 10.1973 52.0472 10.6562C52.0472 11.115 51.6738 11.4883 51.215 11.4883H47.2822C46.7724 11.4883 46.3593 11.9015 46.3593 12.4112C46.3593 12.9208 46.7724 13.334 47.2822 13.334H48.6689V13.751C48.6689 14.2607 49.082 14.6739 49.5918 14.6739C50.1015 14.6739 50.5146 14.2607 50.5146 13.751V13.334H51.215C52.6916 13.334 53.8929 12.1327 53.8929 10.6562C53.8929 9.17961 52.6916 7.9783 51.215 7.9783Z" fill="#D7AA02"/>
<path d="M29.0723 16.3174V18.417H29.8031C31.5009 18.417 32.8821 19.7982 32.8821 21.496V22.8872H34.3173C35.0335 22.8872 35.6918 23.1382 36.2102 23.5563V18.1839C36.2102 14.1332 32.9265 10.8496 28.8759 10.8496H26.9932C28.2854 12.3066 29.0723 14.2215 29.0723 16.3174Z" fill="#554E56"/>
<path d="M14.3383 22.8862H15.7736V21.495C15.7736 19.7972 17.1549 18.416 18.8526 18.416H29.1954V16.3165C29.1954 11.6911 25.4458 7.94141 20.8204 7.94141H17.5551C14.733 7.94141 12.4453 10.2291 12.4453 13.0512V23.5552C12.981 23.1218 13.6493 22.8857 14.3383 22.8862Z" fill="#685E68"/>
<path d="M14.3383 22.8862H15.7736V21.495C15.7736 20.6496 16.1163 19.8829 16.6698 19.3258V13.0512C16.6698 10.3718 18.7323 8.17569 21.356 7.96023C21.1777 7.94832 20.9991 7.94204 20.8204 7.94141H17.5551C14.733 7.94141 12.4453 10.2291 12.4453 13.0512V23.5552C12.981 23.1218 13.6493 22.8857 14.3383 22.8862Z" fill="#554E56"/>
<path d="M11.4248 39.4023C11.3529 39.5363 11.2461 39.6484 11.1156 39.7265C10.9851 39.8046 10.8359 39.8459 10.6838 39.8461H7.80601V42.7239C7.80601 43.3411 7.38962 43.8912 6.79346 44.0616L6.70412 44.0871V59.6943C6.70412 59.7333 6.70253 59.772 6.70117 59.8108H36.399L36.5221 58.55V39.4023H11.4248Z" fill="#C4E2FF"/>
<path d="M11.4248 39.4025C11.3529 39.5365 11.246 39.6485 11.1156 39.7266C10.9851 39.8047 10.8359 39.8461 10.6838 39.8462H7.80601V42.724C7.80601 43.3412 7.38962 43.8913 6.79346 44.0618L6.70412 44.0872V59.6944C6.70412 59.7334 6.70253 59.7721 6.70117 59.8109H11.3131V43.0022C11.3131 41.0141 12.9248 39.4023 14.9128 39.4023L11.4248 39.4025Z" fill="#B3DAFE"/>
<path d="M49.2075 36.2825V32.1683C49.2075 29.7029 51.2132 27.6973 53.6786 27.6973C56.1439 27.6973 58.1496 29.7029 58.1496 32.1683V36.2825H59.9953V32.1683C59.9953 28.6852 57.1616 25.8516 53.6786 25.8516C50.1955 25.8516 47.3618 28.6852 47.3618 32.1683V36.2825H49.2075Z" fill="#554E56"/>
<path d="M61.9671 36.1602H57.1177L56.9946 36.8909V59.081L57.1177 59.8114H61.9671C62.0746 59.8114 62.1811 59.7902 62.2805 59.749C62.3799 59.7078 62.4702 59.6475 62.5462 59.5714C62.6223 59.4954 62.6826 59.4051 62.7238 59.3057C62.7649 59.2063 62.7861 59.0998 62.7861 58.9922V36.9792C62.7861 36.7619 62.6998 36.5536 62.5462 36.4C62.3926 36.2464 62.1843 36.1602 61.9671 36.1602Z" fill="#FD4755"/>
<path d="M36.3984 59.8114H57.1178V36.1602H37.2176C37.0003 36.1602 36.792 36.2465 36.6384 36.4001C36.4847 36.5537 36.3984 36.762 36.3984 36.9793V59.8114Z" fill="#FE646F"/>
<path d="M40.4414 39.0894V36.1602H37.2176C37.0003 36.1602 36.792 36.2465 36.6384 36.4001C36.4847 36.5537 36.3984 36.762 36.3984 36.9793V59.8115H40.6968V39.7257C40.5328 39.5545 40.4413 39.3265 40.4414 39.0894Z" fill="#FD4755"/>
<path d="M52.1515 40.0116C51.9068 40.0116 51.672 39.9143 51.499 39.7413C51.3259 39.5682 51.2287 39.3335 51.2287 39.0887V32.1683C51.2287 29.7029 49.223 27.6973 46.7577 27.6973C44.2923 27.6973 42.2866 29.7029 42.2866 32.1683V39.0887C42.2866 39.5984 41.8736 40.0116 41.3638 40.0116C40.854 40.0116 40.4409 39.5984 40.4409 39.0887V32.1683C40.4409 28.6852 43.2746 25.8516 46.7577 25.8516C50.2407 25.8516 53.0744 28.6852 53.0744 32.1683V39.0887C53.0744 39.3335 52.9772 39.5682 52.8041 39.7413C52.631 39.9143 52.3963 40.0116 52.1515 40.0116Z" fill="#685E68"/>
<path d="M46.7577 53.3483C49.7366 53.3483 52.1515 50.9334 52.1515 47.9544C52.1515 44.9755 49.7366 42.5605 46.7577 42.5605C43.7787 42.5605 41.3638 44.9755 41.3638 47.9544C41.3638 50.9334 43.7787 53.3483 46.7577 53.3483Z" fill="white"/>
<path d="M44.4605 47.9544C44.4605 45.5138 46.0819 43.4528 48.3059 42.7872C47.8036 42.6368 47.282 42.5604 46.7577 42.5605C43.7787 42.5605 41.3638 44.9755 41.3638 47.9544C41.3638 50.9334 43.7787 53.3483 46.7577 53.3483C47.296 53.3483 47.8155 53.2685 48.3059 53.1217C46.0819 52.4561 44.4605 50.3951 44.4605 47.9544Z" fill="#F3F0F3"/>
<path d="M24.5153 43.3025C24.4631 43.347 24.3968 43.3715 24.3282 43.3715C24.2596 43.3715 24.1933 43.347 24.1411 43.3025L23.4053 42.6738V59.8112H25.251V42.6738L24.5153 43.3025Z" fill="#8AC9FE"/>
<path d="M30.8527 38.4706L28.2616 36.8535C27.5252 37.1135 26.7501 37.2461 25.9692 37.2459H22.6858C21.905 37.2462 21.1298 37.1135 20.3935 36.8535L17.8023 38.4706C17.752 38.502 17.7104 38.5457 17.6816 38.5976C17.6528 38.6495 17.6377 38.7079 17.6377 38.7673V46.1951C17.6377 46.4885 17.9772 46.6515 18.206 46.4682L24.1087 41.7404C24.1708 41.6907 24.2479 41.6637 24.3274 41.6637C24.4069 41.6637 24.484 41.6907 24.546 41.7404L30.4487 46.4682C30.6777 46.6515 31.0171 46.4886 31.0171 46.1951V38.7673C31.0172 38.7079 31.0021 38.6495 30.9734 38.5976C30.9446 38.5457 30.9031 38.502 30.8527 38.4706Z" fill="#B3DAFE"/>
<path d="M21.1248 37.0659C21.1284 37.0668 21.1322 37.0672 21.1358 37.0681C20.8845 37.0104 20.6367 36.9388 20.3935 36.8535L17.8023 38.4706C17.752 38.502 17.7104 38.5457 17.6816 38.5976C17.6528 38.6495 17.6377 38.7079 17.6377 38.7673V46.1951C17.6377 46.4885 17.9772 46.6515 18.206 46.4682L19.7204 45.2553V39.8401C19.7204 39.7808 19.7354 39.7224 19.7642 39.6705C19.793 39.6186 19.8345 39.5749 19.8849 39.5434L21.1247 38.7697L21.1248 37.0659Z" fill="#8AC9FE"/>
<path d="M15.7739 30.334V22.7637H14.3385C12.6024 22.7637 11.1948 24.1712 11.1948 25.9074V27.4507C11.1948 29.1868 12.6024 30.5944 14.3385 30.5944H15.7804C15.7772 30.5077 15.7739 30.4212 15.7739 30.334Z" fill="#F6A96C"/>
<path d="M34.3173 22.7637H32.8821V30.334C32.8821 30.4212 32.8788 30.5078 32.8755 30.5944H34.3173C36.0535 30.5944 37.4611 29.1868 37.4611 27.4507V25.9074C37.4611 24.1712 36.0535 22.7637 34.3173 22.7637ZM25.9694 37.2467H22.686C22.1605 37.2463 21.6368 37.1859 21.125 37.0668V40.6982C21.125 40.7576 21.1379 40.8163 21.1627 40.8702C21.1876 40.9242 21.2238 40.9721 21.269 41.0107L24.0607 43.3957C24.1351 43.4593 24.2297 43.4942 24.3276 43.4942C24.4255 43.4942 24.5201 43.4593 24.5946 43.3957L27.3864 41.0107C27.4315 40.9721 27.4678 40.9242 27.4927 40.8703C27.5175 40.8163 27.5304 40.7576 27.5305 40.6982V37.0668C27.0186 37.186 26.4949 37.2463 25.9694 37.2467Z" fill="#FFBD86"/>
<path d="M24.0086 41.0102C23.9634 40.9716 23.9272 40.9237 23.9023 40.8698C23.8775 40.8158 23.8646 40.7572 23.8646 40.6978V37.2463H22.686C22.1605 37.2459 21.6368 37.1855 21.125 37.0664V40.6979C21.125 40.7573 21.1379 40.816 21.1627 40.8699C21.1876 40.9238 21.2238 40.9717 21.269 41.0103L24.0607 43.3953C24.1351 43.4589 24.2297 43.4938 24.3276 43.4938C24.4255 43.4938 24.5201 43.4589 24.5946 43.3953L25.6974 42.4532L24.0086 41.0102Z" fill="#F6A96C"/>
<path d="M25.97 37.3692H22.6866C18.8009 37.3692 15.6509 34.2192 15.6509 30.3335V21.495C15.6509 19.7266 17.0845 18.293 18.8529 18.293H29.8036C31.572 18.293 33.0057 19.7266 33.0057 21.495V30.3335C33.0057 34.2192 29.8557 37.3692 25.97 37.3692Z" fill="#FED2A4"/>
<path d="M18.8222 30.3335V21.495C18.8222 19.7266 20.2558 18.293 22.0242 18.293H18.8529C17.0845 18.293 15.6509 19.7266 15.6509 21.495V30.3335C15.6509 34.2192 18.8009 37.3692 22.6866 37.3692H25.8579C21.9722 37.3692 18.8222 34.2192 18.8222 30.3335Z" fill="#FFBD86"/>
<path d="M19.7935 26.255C19.5487 26.255 19.314 26.1577 19.1409 25.9847C18.9678 25.8116 18.8706 25.5769 18.8706 25.3321V23.7686C18.8706 23.2589 19.2837 22.8457 19.7935 22.8457C20.3032 22.8457 20.7163 23.2589 20.7163 23.7686V25.3321C20.7163 25.5769 20.6191 25.8116 20.446 25.9847C20.2729 26.1577 20.0382 26.255 19.7935 26.255ZM28.8619 26.255C28.6171 26.255 28.3824 26.1577 28.2093 25.9847C28.0363 25.8116 27.939 25.5769 27.939 25.3321V23.7686C27.939 23.2589 28.3521 22.8457 28.8619 22.8457C29.3717 22.8457 29.7847 23.2589 29.7847 23.7686V25.3321C29.7847 25.5769 29.6875 25.8116 29.5144 25.9847C29.3414 26.1577 29.1066 26.255 28.8619 26.255ZM24.3277 34.0768C23.1288 34.0768 21.9299 33.6204 21.0172 32.7078C20.8454 32.5345 20.7492 32.3001 20.7497 32.0561C20.7503 31.812 20.8475 31.5781 21.0201 31.4055C21.1927 31.233 21.4266 31.1358 21.6706 31.1353C21.9147 31.1348 22.149 31.2309 22.3223 31.4028C22.8584 31.939 23.5707 32.2343 24.3276 32.2343C25.0846 32.2343 25.7968 31.939 26.333 31.4028C26.5063 31.2309 26.7407 31.1348 26.9847 31.1353C27.2288 31.1358 27.4627 31.233 27.6353 31.4055C27.8079 31.5781 27.9051 31.812 27.9056 32.0561C27.9061 32.3001 27.81 32.5345 27.6382 32.7078C26.7254 33.6204 25.5266 34.0768 24.3277 34.0768ZM24.3269 30.0074C24.1274 30.0075 23.9333 29.9427 23.7739 29.8228L22.5231 28.8847C22.3436 28.7509 22.1924 28.5827 22.0783 28.39C21.9642 28.1973 21.8895 27.9839 21.8584 27.7622C21.8261 27.5406 21.8381 27.3147 21.8937 27.0978C21.9493 26.8809 22.0474 26.6771 22.1823 26.4983L23.5895 24.6221C23.7363 24.4263 23.9549 24.2969 24.1972 24.2623C24.4395 24.2277 24.6856 24.2907 24.8814 24.4376C25.0773 24.5844 25.2067 24.803 25.2413 25.0453C25.2759 25.2876 25.2129 25.5337 25.066 25.7296L23.7435 27.4928L24.8814 28.3463C25.0365 28.4625 25.1509 28.6246 25.2087 28.8096C25.2664 28.9946 25.2645 29.193 25.2031 29.3768C25.1417 29.5606 25.0241 29.7204 24.8668 29.8336C24.7095 29.9468 24.5206 30.0076 24.3269 30.0074Z" fill="#CA6E59"/>
<path d="M6.41308 44.1145H1.72992C0.962354 44.1145 0.337891 43.49 0.337891 42.7224V41.7656H0.214844V59.6928C0.214967 61.5185 1.69497 62.9985 3.52062 62.9985C5.34627 62.9985 6.82628 61.5185 6.82628 59.6928V44.0518C6.6925 44.0935 6.55319 44.1146 6.41308 44.1145Z" fill="#C4E2FF"/>
<path d="M3.46636 59.693V44.2377H1.72992C0.896646 44.2377 0.214844 43.5559 0.214844 42.7227V59.693C0.214844 61.5187 1.69485 62.9987 3.5205 62.9987C4.11174 62.9987 4.66619 62.8428 5.14632 62.5709C4.14361 62.0032 3.46636 60.9274 3.46636 59.693Z" fill="#B3DAFE"/>
<path d="M10.6829 25.3691H3.10726C2.98064 25.3691 2.85526 25.3941 2.73828 25.4425C2.6213 25.491 2.51501 25.562 2.42547 25.6515C2.33594 25.7411 2.26492 25.8474 2.21646 25.9644C2.16801 26.0813 2.14307 26.2067 2.14307 26.3333V34.4452H6.41292C7.18048 34.4452 7.80494 35.0697 7.80494 35.8372V39.9694H10.6828C10.9385 39.9694 11.1837 39.8678 11.3646 39.687C11.5454 39.5062 11.647 39.2609 11.647 39.0052V26.3333C11.647 26.2067 11.6221 26.0813 11.5736 25.9643C11.5252 25.8474 11.4542 25.7411 11.3647 25.6515C11.2751 25.562 11.1689 25.491 11.0519 25.4425C10.9349 25.3941 10.8095 25.3691 10.6829 25.3691Z" fill="#0593FC"/>
<path d="M4.18392 34.4452V26.3333C4.18392 26.0776 4.28551 25.8324 4.46633 25.6515C4.64715 25.4707 4.8924 25.3691 5.14812 25.3691H3.10726C2.85154 25.3691 2.60629 25.4707 2.42547 25.6515C2.24465 25.8324 2.14307 26.0776 2.14307 26.3333V34.4452H4.18392Z" fill="#0182FC"/>
<path d="M6.41331 34.4452C6.54226 34.4452 6.66666 34.4642 6.78516 34.4971V25.3691H4.93945V34.4452H6.41331Z" fill="#554E56"/>
<path d="M6.41308 44.2394H1.72992C0.896646 44.2394 0.214844 43.5576 0.214844 42.7243V35.8373C0.214844 35.0041 0.896646 34.3223 1.72992 34.3223H6.41308C7.24636 34.3223 7.92816 35.0041 7.92816 35.8373V42.7243C7.92816 43.5576 7.24636 44.2394 6.41308 44.2394Z" fill="#FED2A4"/>
<path d="M3.48629 42.7243V35.8373C3.48629 35.0041 4.16809 34.3223 5.00137 34.3223H1.72992C0.896646 34.3223 0.214844 35.0041 0.214844 35.8373V42.7243C0.214844 43.5575 0.896646 44.2393 1.72992 44.2393H5.00137C4.16809 44.2395 3.48629 43.5577 3.48629 42.7243Z" fill="#FFBD86"/>
</svg>
