<svg width="58" height="66" viewBox="0 0 58 66" fill="none" xmlns="http://www.w3.org/2000/svg">
<path d="M9.91725 21.2246H3.2583C1.91211 21.2246 0.820801 22.3159 0.820801 23.6621V63.3659C0.820801 64.7121 1.91211 65.8034 3.2583 65.8034H9.91725C11.2634 65.8034 12.3547 64.7121 12.3547 63.3659V23.6621C12.3547 22.3159 11.2634 21.2246 9.91725 21.2246Z" fill="#F1F2F2"/>
<path d="M9.91725 21.2246H9.30787V60.3191C9.30787 60.9655 9.05106 61.5855 8.59394 62.0426C8.13682 62.4998 7.51684 62.7566 6.87037 62.7566H0.820801V63.3659C0.820801 64.0124 1.07761 64.6324 1.53473 65.0895C1.99185 65.5466 2.61184 65.8034 3.2583 65.8034H9.91725C10.5637 65.8034 11.1837 65.5466 11.6408 65.0895C12.0979 64.6324 12.3547 64.0124 12.3547 63.3659V23.6621C12.3547 23.0156 12.0979 22.3957 11.6408 21.9385C11.1837 21.4814 10.5637 21.2246 9.91725 21.2246Z" fill="#E6E7E8"/>
<path d="M28.3311 65.8064V49.4062H31.6698V65.8064H28.3311Z" fill="#D1D3D4"/>
<path d="M20.2808 4.82422H39.7189V49.4055H20.2808V4.82422Z" fill="#8C3F0A"/>
<path d="M22.1085 45.4073C21.9876 45.4076 21.8692 45.372 21.7685 45.305C21.6679 45.238 21.5893 45.1426 21.5429 45.0309C21.4965 44.9192 21.4842 44.7963 21.5078 44.6776C21.5313 44.559 21.5895 44.45 21.675 44.3645C21.7605 44.2789 21.8695 44.2207 21.9882 44.1972C22.1068 44.1737 22.2298 44.1859 22.3415 44.2323C22.4532 44.2788 22.5486 44.3573 22.6156 44.458C22.6826 44.5587 22.7182 44.677 22.7179 44.798C22.7174 44.9594 22.6531 45.1142 22.5389 45.2283C22.4247 45.3425 22.27 45.4069 22.1085 45.4073ZM22.1085 42.9698C21.9466 42.9692 21.7915 42.9044 21.6773 42.7896C21.563 42.6748 21.499 42.5194 21.4991 42.3574V18.9727C21.4991 18.811 21.5633 18.656 21.6776 18.5418C21.7919 18.4275 21.9469 18.3633 22.1085 18.3633C22.2701 18.3633 22.4251 18.4275 22.5394 18.5418C22.6537 18.656 22.7179 18.811 22.7179 18.9727V42.3574C22.7181 42.5194 22.654 42.6748 22.5398 42.7896C22.4255 42.9044 22.2705 42.9692 22.1085 42.9698Z" fill="#995222"/>
<path d="M36.6723 4.82422V46.3583H20.2808V49.4052H39.7192V4.82422H36.6723Z" fill="#7C3108"/>
<path d="M38.1958 4.82422V47.8817H20.2808V49.4052H39.7192V4.82422H38.1958Z" fill="#6D2E03"/>
<path d="M29.4934 13.3252C29.4215 13.2994 29.3453 13.288 29.2691 13.2917C29.1929 13.2954 29.1182 13.3142 29.0492 13.3469C28.9803 13.3796 28.9184 13.4256 28.8673 13.4823C28.8162 13.539 28.7769 13.6052 28.7514 13.6771L27.1302 18.2234C27.108 18.2861 27.0967 18.3522 27.0967 18.4187V49.4054H28.2578V18.5189L29.8453 14.0671C29.8709 13.9953 29.8821 13.9191 29.8783 13.843C29.8745 13.7668 29.8557 13.6922 29.823 13.6233C29.7904 13.5544 29.7444 13.4926 29.6879 13.4414C29.6313 13.3903 29.5652 13.3508 29.4934 13.3252Z" fill="#F79219"/>
<path d="M23.5874 16.8509H20.2803V14.2188H23.587C23.6972 14.2187 23.8038 14.2579 23.8878 14.3294L24.8899 15.1825C24.9412 15.2261 24.9823 15.2803 25.0106 15.3414C25.0388 15.4025 25.0534 15.4691 25.0534 15.5364C25.0534 15.6037 25.0388 15.6702 25.0106 15.7313C24.9823 15.7924 24.9412 15.8466 24.8899 15.8903L23.8878 16.7434C23.8035 16.8136 23.6971 16.8517 23.5874 16.8509Z" fill="#6D2E03"/>
<path d="M29.9834 20.6064C30.4345 20.6064 30.8002 20.2407 30.8002 19.7895C30.8002 19.3384 30.4345 18.9727 29.9834 18.9727C29.5322 18.9727 29.1665 19.3384 29.1665 19.7895C29.1665 20.2407 29.5322 20.6064 29.9834 20.6064Z" fill="#FFA91A"/>
<path d="M33.7802 20.6064C34.2314 20.6064 34.5971 20.2407 34.5971 19.7895C34.5971 19.3384 34.2314 18.9727 33.7802 18.9727C33.3291 18.9727 32.9634 19.3384 32.9634 19.7895C32.9634 20.2407 33.3291 20.6064 33.7802 20.6064Z" fill="#FFA91A"/>
<path d="M29.9834 31.9189C30.4345 31.9189 30.8002 31.5532 30.8002 31.102C30.8002 30.6509 30.4345 30.2852 29.9834 30.2852C29.5322 30.2852 29.1665 30.6509 29.1665 31.102C29.1665 31.5532 29.5322 31.9189 29.9834 31.9189Z" fill="#FFA91A"/>
<path d="M33.7802 31.9189C34.2314 31.9189 34.5971 31.5532 34.5971 31.102C34.5971 30.6509 34.2314 30.2852 33.7802 30.2852C33.3291 30.2852 32.9634 30.6509 32.9634 31.102C32.9634 31.5532 33.3291 31.9189 33.7802 31.9189Z" fill="#FFA91A"/>
<path d="M29.9839 43.2314C30.435 43.2314 30.8007 42.8657 30.8007 42.4145C30.8007 41.9634 30.435 41.5977 29.9839 41.5977C29.5327 41.5977 29.167 41.9634 29.167 42.4145C29.167 42.8657 29.5327 43.2314 29.9839 43.2314Z" fill="#FFA91A"/>
<path d="M33.7802 43.2314C34.2314 43.2314 34.5971 42.8657 34.5971 42.4145C34.5971 41.9634 34.2314 41.5977 33.7802 41.5977C33.3291 41.5977 32.9634 41.9634 32.9634 42.4145C32.9634 42.8657 33.3291 43.2314 33.7802 43.2314Z" fill="#FFA91A"/>
<path d="M39.7192 12.5371V34.3765H44.5598V8.51855C44.5598 8.03336 44.4642 7.55291 44.2785 7.10465C44.0928 6.6564 43.8207 6.24911 43.4776 5.90605C43.1344 5.56299 42.7271 5.29088 42.2788 5.10526C41.8305 4.91964 41.3501 4.82414 40.8649 4.82422H39.7192V12.5371Z" fill="#8C3F0A"/>
<path d="M42.8294 5.39453C43.2012 5.98211 43.3986 6.66319 43.3985 7.35855V33.2165H39.7197V34.3776H44.5603V8.51849C44.5599 7.8938 44.4009 7.27944 44.0982 6.73303C43.7954 6.18661 43.3588 5.72605 42.8294 5.39453Z" fill="#7C3108"/>
<path d="M42.6043 28.2891H44.5601V31.3969H42.6043C42.5433 31.3969 42.4829 31.3849 42.4265 31.3615C42.3701 31.3382 42.3189 31.3039 42.2757 31.2608C42.2326 31.2176 42.1984 31.1664 42.175 31.11C42.1517 31.0537 42.1397 30.9932 42.1397 30.9322V28.7549C42.1395 28.6938 42.1514 28.6333 42.1747 28.5767C42.198 28.5202 42.2322 28.4689 42.2753 28.4256C42.3185 28.3823 42.3698 28.348 42.4262 28.3245C42.4827 28.3011 42.5432 28.2891 42.6043 28.2891Z" fill="#FFA91A"/>
<path d="M43.3975 28.2891H44.5586V31.3954H43.3975V28.2891Z" fill="#F79219"/>
<path d="M20.2797 12.5371V34.3765H15.4395V8.51855C15.4395 8.03338 15.535 7.55296 15.7207 7.10472C15.9064 6.65649 16.1785 6.24921 16.5216 5.90616C16.8647 5.5631 17.272 5.29099 17.7202 5.10535C18.1685 4.91971 18.6489 4.82418 19.1341 4.82422H20.2797V12.5371Z" fill="#8C3F0A"/>
<path d="M19.1341 4.82422H19.1189V33.2147H15.4395V34.3759H20.2797V4.82422H19.1341Z" fill="#7C3108"/>
<path d="M17.3952 31.3969H15.4395V28.2891H17.3952C17.4563 28.2891 17.5167 28.3011 17.5731 28.3244C17.6294 28.3478 17.6807 28.382 17.7238 28.4252C17.7669 28.4683 17.8012 28.5195 17.8245 28.5759C17.8479 28.6323 17.8599 28.6927 17.8599 28.7537V30.931C17.8601 30.9921 17.8482 31.0527 17.8249 31.1092C17.8016 31.1657 17.7674 31.2171 17.7242 31.2604C17.6811 31.3036 17.6298 31.338 17.5733 31.3614C17.5169 31.3848 17.4564 31.3969 17.3952 31.3969Z" fill="#FFA91A"/>
<path d="M17.3952 28.291H16.6984V29.7706C16.6985 29.8316 16.6865 29.892 16.6632 29.9484C16.6398 30.0047 16.6057 30.056 16.5625 30.0991C16.5194 30.1423 16.4682 30.1765 16.4118 30.1999C16.3555 30.2232 16.2951 30.2352 16.2341 30.2352H15.4395V31.3964H17.3952C17.4562 31.3964 17.5167 31.3844 17.573 31.3611C17.6294 31.3378 17.6806 31.3036 17.7238 31.2605C17.7669 31.2174 17.8012 31.1662 17.8245 31.1098C17.8479 31.0535 17.8599 30.9931 17.8599 30.932V28.7544C17.8596 28.6314 17.8106 28.5135 17.7235 28.4266C17.6363 28.3397 17.5183 28.2909 17.3952 28.291Z" fill="#F79219"/>
<path d="M28.4723 17.8058L34.8707 12.8803C34.925 12.8385 34.9694 12.7851 35.0006 12.7242C35.0319 12.6632 35.0493 12.596 35.0516 12.5276C35.0538 12.4591 35.0409 12.3909 35.0138 12.328C34.9866 12.2651 34.9459 12.209 34.8945 12.1636L33.2031 10.6737C33.1437 10.6213 33.0986 10.5545 33.0722 10.4797C33.0458 10.405 33.039 10.3247 33.0524 10.2465C33.0658 10.1684 33.099 10.095 33.1488 10.0333C33.1986 9.97155 33.2633 9.92362 33.3369 9.89402L34.2948 9.5089C34.3576 9.48377 34.4142 9.44519 34.4604 9.39586C34.5067 9.34654 34.5416 9.28767 34.5627 9.22341L35.8975 5.17746C35.9307 5.07702 35.9285 4.96827 35.8915 4.8692C35.8544 4.77013 35.7846 4.68669 35.6937 4.63268L32.6541 2.82527C32.5824 2.78239 32.5003 2.75975 32.4168 2.75977H27.5838C27.5002 2.75975 27.4182 2.78239 27.3464 2.82527L24.3078 4.63207C24.2169 4.68608 24.1471 4.76952 24.11 4.86859C24.0729 4.96766 24.0708 5.07641 24.104 5.17685L25.4388 9.2228C25.4599 9.28706 25.4948 9.34593 25.541 9.39525C25.5873 9.44458 25.6438 9.48316 25.7066 9.50829L27.0881 10.0637C27.1705 10.0968 27.2416 10.1529 27.2931 10.2252C27.3447 10.2975 27.3744 10.383 27.3787 10.4717L27.7252 17.4603C27.7293 17.5451 27.7565 17.6271 27.8039 17.6974C27.8513 17.7678 27.9171 17.8238 27.9941 17.8594C28.0711 17.895 28.1563 17.9088 28.2406 17.8994C28.3249 17.89 28.4051 17.8576 28.4723 17.8058ZM29.5631 10.688L27.6795 5.44498C27.6542 5.37485 27.6463 5.29968 27.6562 5.22581C27.6661 5.15195 27.6937 5.08156 27.7366 5.0206C27.7795 4.95964 27.8364 4.9099 27.9026 4.87558C27.9687 4.84126 28.0422 4.82336 28.1167 4.82341H31.8839C31.9584 4.82336 32.0318 4.84126 32.098 4.87558C32.1642 4.9099 32.2211 4.95964 32.264 5.0206C32.3068 5.08156 32.3344 5.15195 32.3444 5.22581C32.3543 5.29968 32.3463 5.37485 32.3211 5.44498L30.4375 10.688C30.4051 10.7781 30.3458 10.8559 30.2675 10.9109C30.1893 10.9659 30.0959 10.9954 30.0003 10.9954C29.9046 10.9954 29.8113 10.9659 29.733 10.9109C29.6548 10.8559 29.5954 10.7781 29.5631 10.688Z" fill="#FFA91A"/>
<path d="M33.8816 11.2758C33.8959 11.3589 33.8872 11.4443 33.8566 11.5229C33.8259 11.6014 33.7744 11.6701 33.7076 11.7215L27.6699 16.3692L27.7242 17.4625C27.7284 17.5471 27.7557 17.6291 27.8031 17.6993C27.8505 17.7696 27.9163 17.8255 27.9933 17.8611C28.0703 17.8966 28.1555 17.9104 28.2398 17.9009C28.324 17.8915 28.4041 17.8591 28.4712 17.8074L34.8697 12.8815C34.924 12.8397 34.9683 12.7864 34.9996 12.7255C35.0309 12.6645 35.0483 12.5974 35.0505 12.5289C35.0528 12.4605 35.0399 12.3923 35.0127 12.3295C34.9856 12.2666 34.9448 12.2105 34.8935 12.1652L33.8816 11.2758ZM35.6917 4.63359L34.7213 4.05469L33.3996 8.06377C33.3784 8.12797 33.3434 8.18678 33.2972 8.23609C33.2509 8.2854 33.1945 8.32402 33.1318 8.34926L32.1735 8.73438C32.0999 8.76398 32.0352 8.81191 31.9854 8.87361C31.9356 8.93531 31.9024 9.00874 31.889 9.08689C31.8756 9.16504 31.8824 9.24533 31.9088 9.3201C31.9352 9.39488 31.9803 9.46166 32.0398 9.51408L33.0537 10.4071C33.0344 10.3025 33.0519 10.1944 33.1031 10.1012C33.1544 10.008 33.2363 9.93531 33.335 9.89555L34.2929 9.51042C34.3557 9.48531 34.4122 9.44676 34.4584 9.3975C34.5047 9.34823 34.5396 9.28943 34.5607 9.22523L35.8956 5.17898C35.9289 5.07846 35.9268 4.96957 35.8898 4.87037C35.8527 4.77118 35.7828 4.68763 35.6917 4.63359Z" fill="#F79219"/>
<path d="M42.8894 62.4668H17.1088C16.1869 62.4668 15.4395 63.2142 15.4395 64.1362C15.4395 65.0582 16.1869 65.8056 17.1088 65.8056H42.8894C43.8113 65.8056 44.5587 65.0582 44.5587 64.1362C44.5587 63.2142 43.8113 62.4668 42.8894 62.4668Z" fill="#E6E7E8"/>
<path d="M43.0301 62.473C43.0341 62.5193 43.0362 62.5659 43.0362 62.6132C43.0362 63.0559 42.8603 63.4805 42.5472 63.7936C42.2342 64.1067 41.8096 64.2825 41.3668 64.2825H15.586C15.5391 64.2825 15.4921 64.2804 15.4461 64.2765C15.4812 64.6935 15.6716 65.0821 15.9796 65.3654C16.2877 65.6487 16.6909 65.8059 17.1094 65.806H42.8902C43.1095 65.806 43.3265 65.7628 43.5291 65.6789C43.7316 65.595 43.9157 65.4721 44.0707 65.317C44.2257 65.162 44.3487 64.978 44.4325 64.7754C44.5164 64.5729 44.5596 64.3558 44.5596 64.1366C44.5596 63.7181 44.4023 63.3148 44.1191 63.0067C43.8358 62.6986 43.4471 62.5081 43.0301 62.473ZM31.6695 1.86305V7.25906L30.4355 10.6898C30.4032 10.7795 30.344 10.857 30.2661 10.9118C30.1881 10.9666 30.0951 10.996 29.9998 10.996C29.9045 10.996 29.8116 10.9666 29.7336 10.9118C29.6556 10.857 29.5964 10.7795 29.5641 10.6898L28.3301 7.25906V1.86305C28.3301 1.42022 28.5061 0.995527 28.8192 0.6824C29.1323 0.369272 29.557 0.193359 29.9998 0.193359C30.4427 0.193359 30.8673 0.369272 31.1805 0.6824C31.4936 0.995527 31.6695 1.42022 31.6695 1.86305ZM6.35303 25.5501H12.3554V27.9778H6.35303C6.19141 27.9778 6.03641 27.9136 5.92213 27.7993C5.80785 27.6851 5.74365 27.5301 5.74365 27.3684V26.1594C5.74365 25.9978 5.80785 25.8428 5.92213 25.7285C6.03641 25.6143 6.19141 25.5501 6.35303 25.5501ZM6.35303 32.1237H12.3554V34.5514H6.35303C6.19141 34.5514 6.03641 34.4872 5.92213 34.373C5.80785 34.2587 5.74365 34.1037 5.74365 33.9421V32.7331C5.74365 32.5715 5.80785 32.4165 5.92213 32.3022C6.03641 32.1879 6.19141 32.1237 6.35303 32.1237ZM6.35303 38.6973H12.3554V41.1251H6.35303C6.19141 41.1251 6.03641 41.0609 5.92213 40.9466C5.80785 40.8323 5.74365 40.6773 5.74365 40.5157V39.3067C5.74365 39.1451 5.80785 38.9901 5.92213 38.8758C6.03641 38.7615 6.19141 38.6973 6.35303 38.6973ZM6.35303 45.271H12.3554V47.6987H6.35303C6.19141 47.6987 6.03641 47.6345 5.92213 47.5202C5.80785 47.4059 5.74365 47.2509 5.74365 47.0893V45.8803C5.74365 45.7187 5.80785 45.5637 5.92213 45.4494C6.03641 45.3352 6.19141 45.271 6.35303 45.271ZM6.35303 51.8446H12.3554V54.2723H6.35303C6.19141 54.2723 6.03641 54.2081 5.92213 54.0939C5.80785 53.9796 5.74365 53.8246 5.74365 53.663V52.454C5.74365 52.2924 5.80785 52.1374 5.92213 52.0231C6.03641 51.9088 6.19141 51.8446 6.35303 51.8446ZM6.35303 58.4182H12.3554V60.846H6.35303C6.19141 60.846 6.03641 60.7818 5.92213 60.6675C5.80785 60.5532 5.74365 60.3982 5.74365 60.2366V59.0276C5.74365 58.866 5.80785 58.711 5.92213 58.5967C6.03641 58.4824 6.19141 58.4182 6.35303 58.4182Z" fill="#D1D3D4"/>
<path d="M51.9469 65.4771L47.8967 57.9328C47.6549 57.4826 47.5283 56.9795 47.5283 56.4684V23.7011C47.5283 23.0443 47.7892 22.4144 48.2537 21.95C48.7181 21.4855 49.348 21.2246 50.0048 21.2246H54.9898C55.6466 21.2246 56.2765 21.4855 56.741 21.95C57.2054 22.4144 57.4663 23.0443 57.4663 23.7011V56.3124C57.4663 56.8156 57.3436 57.3112 57.1089 57.7563L53.0401 65.4729C52.9878 65.5722 52.9093 65.6555 52.8133 65.7137C52.7172 65.7719 52.6071 65.8029 52.4948 65.8034C52.3825 65.8038 52.2721 65.7737 52.1756 65.7162C52.0791 65.6587 52 65.5761 51.9469 65.4771Z" fill="#FFA91A"/>
<path d="M54.9894 21.2246H51.8935C52.5503 21.2246 53.1803 21.4855 53.6447 21.9499C54.1092 22.4144 54.3702 23.0443 54.3703 23.7011V56.3124C54.3702 56.8156 54.2476 57.3112 54.0129 57.7563L50.9355 63.5932L51.9468 65.4771C51.9999 65.5761 52.079 65.6587 52.1755 65.7162C52.272 65.7737 52.3824 65.8038 52.4947 65.8034C52.607 65.8029 52.7171 65.7719 52.8132 65.7137C52.9092 65.6555 52.9877 65.5722 53.04 65.4729L57.1088 57.7563C57.3435 57.3112 57.4662 56.8156 57.4662 56.3124V23.7011C57.4662 23.3759 57.4021 23.0538 57.2777 22.7533C57.1532 22.4528 56.9708 22.1798 56.7408 21.9499C56.5108 21.7199 56.2377 21.5375 55.9372 21.413C55.6367 21.2886 55.3147 21.2246 54.9894 21.2246Z" fill="#F79219"/>
<path d="M47.5283 30.1641H57.4663V33.6311H47.5283V30.1641Z" fill="#EF7816"/>
<path d="M51.9467 65.4774C51.9998 65.5764 52.0789 65.6591 52.1754 65.7165C52.2719 65.774 52.3822 65.8041 52.4945 65.8037C52.6069 65.8033 52.717 65.7723 52.813 65.714C52.9091 65.6558 52.9875 65.5726 53.0399 65.4732L57.1087 57.7567C57.3189 57.3582 57.4395 56.9187 57.4621 56.4688H47.5293C47.5293 56.9798 47.6558 57.4829 47.8977 57.9331L51.9467 65.4774Z" fill="#FFD2C0"/>
<path d="M50.8403 63.4141L51.9476 65.4765C52.0007 65.5755 52.0798 65.6581 52.1763 65.7156C52.2728 65.7731 52.3831 65.8032 52.4955 65.8027C52.6078 65.8023 52.7179 65.7713 52.8139 65.7131C52.91 65.6549 52.9884 65.5716 53.0408 65.4722L54.1261 63.4141H50.8403Z" fill="#808285"/>
</svg>
