<svg width="30" height="30" viewBox="0 0 30 30" fill="none" xmlns="http://www.w3.org/2000/svg">
<rect width="30" height="30" fill="white"/>
<path fill-rule="evenodd" clip-rule="evenodd" d="M28.8 15.3271C28.8 14.3077 28.7085 13.3276 28.5386 12.3867H15V17.9472H22.7364C22.4031 19.7441 21.3903 21.2665 19.8679 22.2859V25.8927H24.5136C27.2318 23.3901 28.8 19.7049 28.8 15.3271Z" fill="#4285F4"/>
<path fill-rule="evenodd" clip-rule="evenodd" d="M15.0003 29.3742C18.8816 29.3742 22.1355 28.087 24.514 25.8915L19.8682 22.2847C18.581 23.1472 16.9344 23.6569 15.0003 23.6569C11.2563 23.6569 8.08725 21.1282 6.95685 17.7305H2.1543V21.4549C4.51964 26.1529 9.381 29.3742 15.0003 29.3742Z" fill="#34A853"/>
<path fill-rule="evenodd" clip-rule="evenodd" d="M6.95653 17.7319C6.66903 16.8694 6.50568 15.948 6.50568 15.0006C6.50568 14.0532 6.66903 13.1319 6.95653 12.2694V8.54492H2.15398C1.1804 10.4855 0.625 12.681 0.625 15.0006C0.625 17.3202 1.1804 19.5157 2.15398 21.4563L6.95653 17.7319Z" fill="#FBBC05"/>
<path fill-rule="evenodd" clip-rule="evenodd" d="M15.0003 6.34233C17.1108 6.34233 19.0057 7.06761 20.4955 8.49204L24.6185 4.36903C22.129 2.04943 18.875 0.625 15.0003 0.625C9.381 0.625 4.51964 3.84631 2.1543 8.54432L6.95685 12.2687C8.08725 8.87102 11.2563 6.34233 15.0003 6.34233Z" fill="#EA4335"/>
</svg>
