<svg width="80" height="64" viewBox="0 0 80 64" fill="none" xmlns="http://www.w3.org/2000/svg">
<path d="M74.9204 0.888672H5.07944C2.27436 0.888672 0 3.16289 0 5.96796V58.0315C0 60.8364 2.27436 63.1106 5.07944 63.1106H74.9204C77.7256 63.1106 80 60.8364 80 58.0313V5.96796C80 3.16289 77.7258 0.888672 74.9204 0.888672ZM74.9204 5.96796V42.9088L64.9103 33.8079C63.4057 32.4402 61.092 32.4949 59.6545 33.9336L49.5235 44.063L29.5479 20.2028C28.038 18.3996 25.2723 18.3819 23.7397 20.1634L5.07944 41.8498V5.96796H74.9204ZM53.3334 19.3013C53.3334 15.4435 56.4594 12.3171 60.3172 12.3171C64.1752 12.3171 67.3014 15.4435 67.3014 19.3013C67.3014 23.1591 64.1753 26.2853 60.3172 26.2853C56.4596 26.2854 53.3334 23.1591 53.3334 19.3013Z" fill="black"/>
</svg>
