<svg width="28" height="28" viewBox="0 0 28 28" fill="none" xmlns="http://www.w3.org/2000/svg">
<path d="M9.41173 3.02344C5.87174 3.02344 2.99219 5.90566 2.99219 9.44656V18.6199C2.99219 22.1599 5.87441 25.0394 9.41531 25.0394H18.5886C22.1286 25.0394 25.0082 22.1572 25.0082 18.6163V9.44298C25.0082 5.90299 22.126 3.02344 18.5851 3.02344H9.41173ZM20.4215 6.69277C20.9279 6.69277 21.3389 7.10374 21.3389 7.6101C21.3389 8.11647 20.9279 8.52744 20.4215 8.52744C19.9152 8.52744 19.5042 8.11647 19.5042 7.6101C19.5042 7.10374 19.9152 6.69277 20.4215 6.69277ZM14.0002 8.52744C17.0356 8.52744 19.5042 10.996 19.5042 14.0314C19.5042 17.0669 17.0356 19.5354 14.0002 19.5354C10.9647 19.5354 8.49619 17.0669 8.49619 14.0314C8.49619 10.996 10.9647 8.52744 14.0002 8.52744ZM14.0002 10.3621C13.027 10.3621 12.0937 10.7487 11.4056 11.4368C10.7174 12.125 10.3309 13.0583 10.3309 14.0314C10.3309 15.0046 10.7174 15.9379 11.4056 16.626C12.0937 17.3142 13.027 17.7008 14.0002 17.7008C14.9734 17.7008 15.9067 17.3142 16.5948 16.626C17.2829 15.9379 17.6695 15.0046 17.6695 14.0314C17.6695 13.0583 17.2829 12.125 16.5948 11.4368C15.9067 10.7487 14.9734 10.3621 14.0002 10.3621V10.3621Z" fill="#212121"/>
</svg>
