<svg width="20" height="20" viewBox="0 0 20 20" fill="none" xmlns="http://www.w3.org/2000/svg">
<path fill-rule="evenodd" clip-rule="evenodd" d="M10 20C4.48598 20 0 15.514 0 10C0 4.48598 4.48598 0 10 0C15.514 0 20 4.48598 20 10C20 15.514 15.514 20 10 20ZM15.1859 13.5129C15.2451 13.5129 15.302 13.4893 15.3439 13.4473C15.3858 13.4054 15.4094 13.3486 15.4095 13.2893V7.01129L10.3216 11.0516C10.2275 11.1264 10.1137 11.1638 9.99996 11.1638C9.88625 11.1638 9.7725 11.1264 9.67832 11.0516L4.59047 7.01129V13.2893C4.59054 13.3486 4.61413 13.4054 4.65605 13.4473C4.69797 13.4893 4.75481 13.5129 4.8141 13.5129H15.1859ZM14.4062 6.48707L10 9.98609L5.59379 6.48707H14.4062ZM16.444 6.7107V13.2894C16.444 13.9831 15.8796 14.5475 15.1859 14.5475H4.8141C4.12035 14.5475 3.55602 13.9831 3.55602 13.2894V6.7107C3.55602 6.01699 4.12039 5.45262 4.8141 5.45262H15.1859C15.8796 5.45258 16.444 6.01699 16.444 6.7107Z" fill="#E47F46"/>
</svg>
