<svg width="28" height="27" viewBox="0 0 28 27" fill="none" xmlns="http://www.w3.org/2000/svg">
<path d="M8.32324 9C8.32324 8.77622 8.41214 8.56161 8.57037 8.40338C8.7286 8.24514 8.94322 8.15625 9.16699 8.15625H13.667C13.8908 8.15625 14.1054 8.24514 14.2636 8.40338C14.4218 8.56161 14.5107 8.77622 14.5107 9C14.5107 9.22378 14.4218 9.43839 14.2636 9.59662C14.1054 9.75485 13.8908 9.84375 13.667 9.84375H9.16699C8.94322 9.84375 8.7286 9.75485 8.57037 9.59662C8.41214 9.43839 8.32324 9.22378 8.32324 9ZM8.32324 13.5C8.32324 13.2762 8.41214 13.0616 8.57037 12.9034C8.7286 12.7451 8.94322 12.6562 9.16699 12.6562H18.167C18.3908 12.6562 18.6054 12.7451 18.7636 12.9034C18.9218 13.0616 19.0107 13.2762 19.0107 13.5C19.0107 13.7238 18.9218 13.9384 18.7636 14.0966C18.6054 14.2549 18.3908 14.3438 18.167 14.3438H9.16699C8.94322 14.3438 8.7286 14.2549 8.57037 14.0966C8.41214 13.9384 8.32324 13.7238 8.32324 13.5Z" fill="#E47F46"/>
<path fill-rule="evenodd" clip-rule="evenodd" d="M11.3787 1.40625H15.9552C17.4976 1.40625 18.7081 1.40625 19.6801 1.485C20.6701 1.56713 21.488 1.73362 22.2282 2.11162C23.4455 2.73182 24.4352 3.72148 25.0554 4.93875C25.4334 5.679 25.5999 6.49688 25.6809 7.48688C25.7607 8.45888 25.7607 9.66937 25.7607 11.2118V12.7474C25.7607 14.49 25.7607 15.552 25.4997 16.4452C25.1947 17.4857 24.633 18.4327 23.8664 19.1994C23.0997 19.966 22.1527 20.5277 21.1122 20.8328C20.219 21.0938 19.157 21.0938 17.4144 21.0938H16.5639C15.5886 21.1003 14.6386 21.4049 13.8414 21.9667L13.7851 22.0061L10.8489 24.1042C9.15574 25.3125 6.93049 23.5665 7.70449 21.636C7.72865 21.576 7.73768 21.5109 7.73078 21.4465C7.72388 21.3822 7.70126 21.3205 7.66492 21.2669C7.62859 21.2134 7.57964 21.1696 7.52239 21.1394C7.46514 21.1092 7.40134 21.0935 7.33662 21.0938H6.66049C5.31127 21.0938 4.01731 20.5578 3.06326 19.6037C2.10922 18.6497 1.57324 17.3557 1.57324 16.0065V11.2118C1.57324 9.66937 1.57324 8.45888 1.65199 7.48688C1.73412 6.49688 1.90062 5.679 2.27862 4.93875C2.89881 3.72148 3.88848 2.73182 5.10574 2.11162C5.84599 1.73362 6.66387 1.56712 7.65387 1.48612C8.62587 1.40625 9.83637 1.40625 11.3787 1.40625ZM7.79112 3.168C6.90574 3.24 6.33424 3.3795 5.87187 3.61462C4.97182 4.07309 4.24008 4.80482 3.78162 5.70487C3.54537 6.16725 3.40699 6.73875 3.33499 7.62413C3.26187 8.51962 3.26074 9.66037 3.26074 11.25V16.0065C3.26074 16.9082 3.61893 17.7729 4.25651 18.4105C4.5722 18.7262 4.94699 18.9766 5.35946 19.1475C5.77194 19.3183 6.21403 19.4062 6.66049 19.4062H7.33662C7.67713 19.406 8.01252 19.4892 8.3134 19.6486C8.61428 19.808 8.87148 20.0388 9.06246 20.3207C9.25344 20.6026 9.37237 20.9271 9.40883 21.2656C9.4453 21.6042 9.39818 21.9465 9.27162 22.2626C9.12424 22.6294 9.54612 22.9601 9.86787 22.7306L12.8682 20.5875C13.9474 19.8269 15.2335 19.4147 16.5537 19.4062H17.249C19.2087 19.4062 20.0075 19.3972 20.6375 19.2127C21.4063 18.9872 22.1061 18.5722 22.6726 18.0056C23.2392 17.4391 23.6542 16.7393 23.8797 15.9705C24.0642 15.3405 24.0732 14.5417 24.0732 12.582V11.25C24.0732 9.66037 24.0732 8.51962 23.999 7.62413C23.927 6.73875 23.7875 6.16725 23.5524 5.70487C23.0942 4.80499 22.3629 4.07328 21.4632 3.61462C20.9997 3.37838 20.4282 3.24 19.5429 3.168C18.6474 3.09487 17.5066 3.09375 15.917 3.09375H11.417C9.82737 3.09375 8.68662 3.09375 7.79112 3.168Z" fill="#E47F46"/>
</svg>
