<svg width="25" height="24" viewBox="0 0 25 24" fill="none" xmlns="http://www.w3.org/2000/svg">
<path d="M6.82275 8C6.82275 7.77622 6.91165 7.56161 7.06988 7.40338C7.22812 7.24514 7.44273 7.15625 7.6665 7.15625H12.1665C12.3903 7.15625 12.6049 7.24514 12.7631 7.40338C12.9214 7.56161 13.0103 7.77622 13.0103 8C13.0103 8.22378 12.9214 8.43839 12.7631 8.59662C12.6049 8.75485 12.3903 8.84375 12.1665 8.84375H7.6665C7.44273 8.84375 7.22812 8.75485 7.06988 8.59662C6.91165 8.43839 6.82275 8.22378 6.82275 8ZM6.82275 12.5C6.82275 12.2762 6.91165 12.0616 7.06988 11.9034C7.22812 11.7451 7.44273 11.6562 7.6665 11.6562H16.6665C16.8903 11.6562 17.1049 11.7451 17.2631 11.9034C17.4214 12.0616 17.5103 12.2762 17.5103 12.5C17.5103 12.7238 17.4214 12.9384 17.2631 13.0966C17.1049 13.2549 16.8903 13.3438 16.6665 13.3438H7.6665C7.44273 13.3438 7.22812 13.2549 7.06988 13.0966C6.91165 12.9384 6.82275 12.7238 6.82275 12.5Z" fill="#212121"/>
<path fill-rule="evenodd" clip-rule="evenodd" d="M9.87825 0.40625H14.4548C15.9971 0.40625 17.2076 0.40625 18.1796 0.485C19.1696 0.567125 19.9875 0.733625 20.7278 1.11162C21.945 1.73182 22.9347 2.72148 23.5549 3.93875C23.9329 4.679 24.0994 5.49688 24.1804 6.48688C24.2603 7.45888 24.2603 8.66937 24.2603 10.2118V11.7474C24.2603 13.49 24.2603 14.552 23.9993 15.4452C23.6942 16.4857 23.1326 17.4327 22.3659 18.1994C21.5992 18.966 20.6522 19.5277 19.6118 19.8328C18.7185 20.0938 17.6565 20.0938 15.9139 20.0938H15.0634C14.0881 20.1003 13.1381 20.4049 12.3409 20.9667L12.2846 21.0061L9.34838 23.1042C7.65525 24.3125 5.43 22.5665 6.204 20.636C6.22816 20.576 6.23719 20.5109 6.23029 20.4465C6.22339 20.3822 6.20077 20.3205 6.16444 20.2669C6.1281 20.2134 6.07915 20.1696 6.0219 20.1394C5.96465 20.1092 5.90086 20.0935 5.83613 20.0938H5.16C3.81078 20.0938 2.51682 19.5578 1.56278 18.6037C0.608731 17.6497 0.0727539 16.3557 0.0727539 15.0065V10.2118C0.0727539 8.66937 0.072754 7.45888 0.151504 6.48688C0.233629 5.49688 0.400129 4.679 0.778129 3.93875C1.39833 2.72148 2.38799 1.73182 3.60525 1.11162C4.3455 0.733625 5.16338 0.567125 6.15338 0.486125C7.12538 0.40625 8.33588 0.40625 9.87825 0.40625ZM6.29063 2.168C5.40525 2.24 4.83375 2.3795 4.37138 2.61462C3.47133 3.07309 2.73959 3.80482 2.28113 4.70487C2.04488 5.16725 1.9065 5.73875 1.8345 6.62413C1.76138 7.51962 1.76025 8.66037 1.76025 10.25V15.0065C1.76025 15.9082 2.11844 16.7729 2.75602 17.4105C3.07171 17.7262 3.4465 17.9766 3.85898 18.1475C4.27145 18.3183 4.71354 18.4062 5.16 18.4062H5.83613C6.17664 18.406 6.51203 18.4892 6.81291 18.6486C7.1138 18.808 7.37099 19.0388 7.56197 19.3207C7.75295 19.6026 7.87188 19.9271 7.90834 20.2656C7.94481 20.6042 7.8977 20.9465 7.77113 21.2626C7.62375 21.6294 8.04563 21.9601 8.36738 21.7306L11.3678 19.5875C12.4469 18.8269 13.733 18.4147 15.0533 18.4062H15.7485C17.7083 18.4062 18.507 18.3972 19.137 18.2127C19.9058 17.9872 20.6056 17.5722 21.1721 17.0056C21.7387 16.4391 22.1538 15.7393 22.3793 14.9705C22.5638 14.3405 22.5728 13.5417 22.5728 11.582V10.25C22.5728 8.66037 22.5728 7.51962 22.4985 6.62413C22.4265 5.73875 22.287 5.16725 22.0519 4.70487C21.5937 3.80499 20.8624 3.07328 19.9628 2.61462C19.4993 2.37838 18.9278 2.24 18.0424 2.168C17.1469 2.09487 16.0061 2.09375 14.4165 2.09375H9.9165C8.32688 2.09375 7.18613 2.09375 6.29063 2.168Z" fill="#212121"/>
</svg>
