<svg width="25" height="25" viewBox="0 0 25 25" fill="none" xmlns="http://www.w3.org/2000/svg">
<path d="M12.3335 6.93945V10.2695" stroke="#212121" stroke-width="1.5" stroke-miterlimit="10" stroke-linecap="round"/>
<path d="M12.3534 2.5C8.67339 2.5 5.69339 5.48 5.69339 9.16V11.26C5.69339 11.94 5.41339 12.96 5.06339 13.54L3.79339 15.66C3.01339 16.97 3.55339 18.43 4.99339 18.91C9.77339 20.5 14.9434 20.5 19.7234 18.91C21.0734 18.46 21.6534 16.88 20.9234 15.66L19.6534 13.54C19.3034 12.96 19.0234 11.93 19.0234 11.26V9.16C19.0134 5.5 16.0134 2.5 12.3534 2.5Z" stroke="#212121" stroke-width="1.5" stroke-miterlimit="10" stroke-linecap="round"/>
<path d="M15.6634 19.3203C15.6634 21.1503 14.1634 22.6503 12.3334 22.6503C11.4234 22.6503 10.5834 22.2703 9.98342 21.6703C9.38342 21.0703 9.00342 20.2303 9.00342 19.3203" stroke="#212121" stroke-width="1.5" stroke-miterlimit="10"/>
</svg>
