<svg width="20" height="20" viewBox="0 0 20 20" fill="none" xmlns="http://www.w3.org/2000/svg">
<g clip-path="url(#clip0_1723_3352)">
<path d="M17.07 2.92786C13.1642 -0.976781 6.83251 -0.975843 2.92786 2.93001C-0.976781 6.83586 -0.975843 13.1675 2.93001 17.0721C6.83587 20.9768 13.1675 20.9758 17.0721 17.07C18.0006 16.1413 18.737 15.0388 19.2394 13.8254C19.7417 12.6121 20.0002 11.3117 20 9.99848C19.9998 8.68526 19.7409 7.38494 19.2382 6.17176C18.7355 4.95859 17.9987 3.85631 17.07 2.92786ZM15.1446 13.9299L15.1433 13.9312V13.9279L14.6366 14.4312C14.3144 14.7575 13.9136 14.9951 13.4727 15.1212C13.0319 15.2474 12.566 15.2577 12.12 15.1512C11.2061 14.9066 10.3373 14.5172 9.54664 13.9979C8.81202 13.5284 8.13126 12.9795 7.51665 12.3612C6.95116 11.7998 6.44308 11.1835 5.99997 10.5212C5.51529 9.80864 5.13164 9.03237 4.85997 8.21453C4.70727 7.74347 4.68876 7.23918 4.80651 6.75819C4.92426 6.27719 5.17362 5.83848 5.52665 5.49122L6.11997 4.8979C6.28493 4.7322 6.55297 4.73161 6.71864 4.89657L6.71997 4.8979L8.59328 6.77122C8.75899 6.93618 8.75957 7.20422 8.59461 7.36989L8.59328 7.37122L7.49329 8.47121C7.17766 8.7834 7.13797 9.27949 7.39997 9.63789C7.79783 10.1839 8.23808 10.6977 8.71664 11.1746C9.2502 11.7104 9.83025 12.1979 10.45 12.6312C10.808 12.881 11.2935 12.8389 11.6033 12.5312L12.6666 11.4512C12.8316 11.2855 13.0996 11.285 13.2653 11.4499L13.2666 11.4512L15.1433 13.3312C15.309 13.4962 15.3096 13.7642 15.1446 13.9299Z" fill="#E47F46"/>
</g>
<defs>
<clipPath id="clip0_1723_3352">
<rect width="20" height="20" fill="white"/>
</clipPath>
</defs>
</svg>
