<svg width="55" height="59" viewBox="0 0 55 59" fill="none" xmlns="http://www.w3.org/2000/svg">
<path d="M29.4241 28.7734V58.8842L5.44385 56.568V35.7797L23.5356 34.6619L29.4241 28.7734Z" fill="#FECE66"/>
<path d="M16.4491 54.4353H16.3569L9.45436 53.767C8.92428 53.7209 8.53248 53.2484 8.5901 52.7183C8.63619 52.1882 9.12018 51.808 9.63873 51.8541L16.5413 52.5224C17.0713 52.5685 17.4631 53.041 17.4055 53.5711C17.3594 54.0666 16.9331 54.4353 16.4491 54.4353ZM12.8077 50.1025H12.7155L9.45436 49.7798C8.92428 49.7338 8.53248 49.2613 8.5901 48.7312C8.63619 48.2011 9.12018 47.8093 9.63873 47.867L12.8999 48.1781C13.4299 48.2242 13.8217 48.6966 13.7641 49.2267C13.718 49.7222 13.3032 50.1025 12.8077 50.1025Z" fill="#70C9E9"/>
<path d="M49.2561 35.215V45.01C48.8989 44.9523 48.5302 44.9178 48.1499 44.9178C44.3817 44.9178 41.328 47.9715 41.328 51.7397C41.328 53.9637 42.3882 55.9342 44.036 57.1787L29.4243 58.8842V28.7734L34.8979 34.2471C39.6917 34.5697 44.4739 34.9039 49.2561 35.215Z" fill="#F5B540"/>
<path d="M29.4243 28.7734L23.5358 34.6619L5.44404 35.7797L0.0395508 36.1139L5.44404 30.7094L29.4243 28.7734ZM54.0614 35.5377C52.4597 35.434 50.8579 35.3303 49.2561 35.215C44.4739 34.9039 39.6802 34.5697 34.8979 34.2471L29.4243 28.7734L49.2561 30.7555C50.8579 32.3457 52.4597 33.9475 54.0614 35.5377Z" fill="#FFD88A"/>
<path d="M27.3731 0.310643L29.4473 4.50517C29.5049 4.60889 29.5971 4.68955 29.7123 4.70107L34.3447 5.36943C34.6328 5.41553 34.7596 5.77275 34.5406 5.98017L31.1873 9.25283C31.1067 9.3335 31.0606 9.44873 31.0836 9.57549L31.8787 14.1849C31.9248 14.4729 31.6252 14.7034 31.3602 14.5651L27.2233 12.3872C27.1196 12.3296 26.9928 12.3296 26.8891 12.3872L22.7522 14.5651C22.4871 14.7034 22.1875 14.4845 22.2336 14.1849L23.0287 9.57549C23.0518 9.46025 23.0057 9.34502 22.925 9.25283L19.5602 5.9917C19.3528 5.78428 19.468 5.42705 19.7561 5.38096L24.3885 4.7126C24.5037 4.70107 24.6074 4.62041 24.6535 4.5167L26.7278 0.322167C26.866 0.045604 27.2348 0.0456041 27.3731 0.310643ZM10.5373 7.47822L11.7473 9.90967C11.7819 9.96728 11.8395 10.0134 11.9086 10.0249L14.5936 10.4167C14.7664 10.4397 14.8356 10.6472 14.7088 10.7739L12.7498 12.6522C12.7037 12.6983 12.6807 12.7675 12.6922 12.8366L13.1531 15.5101C13.1877 15.6829 13.0033 15.8097 12.8535 15.729L10.4567 14.4729C10.399 14.4384 10.3184 14.4384 10.2608 14.4729L7.86389 15.729C7.71408 15.8097 7.52971 15.6829 7.56428 15.5101L8.02522 12.8366C8.03674 12.7675 8.01369 12.6983 7.9676 12.6522L6.02014 10.7624C5.89338 10.6472 5.96252 10.4282 6.13537 10.4052L8.80881 10.0249C8.87795 10.0134 8.93557 9.96728 8.97014 9.90967L10.1686 7.47822C10.2492 7.31689 10.4682 7.31689 10.5373 7.47822ZM43.9323 7.47822L45.1307 9.90967C45.1653 9.96728 45.2229 10.0134 45.292 10.0249L47.977 10.4167C48.1498 10.4397 48.219 10.6472 48.0922 10.7739L46.1563 12.6638C46.1102 12.7099 46.0871 12.779 46.0987 12.8481L46.5596 15.5216C46.5942 15.6944 46.4098 15.8212 46.26 15.7405L43.8631 14.4845C43.8055 14.4499 43.7248 14.4499 43.6672 14.4845L41.2703 15.7405C41.1205 15.8212 40.9362 15.6944 40.9707 15.5216L41.4317 12.8481C41.4432 12.779 41.4201 12.7099 41.374 12.6638L39.4381 10.7739C39.3114 10.6587 39.3805 10.4397 39.5533 10.4167L42.2383 10.0249C42.3074 10.0134 42.3651 9.96728 42.3996 9.90967L43.5981 7.47822C43.6326 7.31689 43.8516 7.31689 43.9323 7.47822Z" fill="#EA6552"/>
<path d="M27.0502 26.2267C26.5202 26.2267 26.0938 25.8004 26.0938 25.2703V18.8287C26.0938 18.2986 26.5202 17.8722 27.0502 17.8722C27.5803 17.8722 28.0067 18.2986 28.0067 18.8287V25.2703C28.0067 25.7889 27.5803 26.2267 27.0502 26.2267ZM40.3368 27.4828C40.21 27.4828 40.0717 27.4597 39.945 27.4021C39.461 27.1832 39.242 26.6185 39.4495 26.1346L42.5954 19.0246C42.8143 18.5406 43.379 18.3217 43.8629 18.5291C44.3469 18.748 44.5659 19.3127 44.3584 19.7967L41.2126 26.9181C41.0512 27.2754 40.7055 27.4828 40.3368 27.4828ZM34.2754 26.9988C34.1833 26.9988 34.1026 26.9873 34.0104 26.9642C33.5034 26.8144 33.2038 26.2844 33.3536 25.7773L36.0731 16.3166C36.2229 15.8096 36.753 15.5099 37.26 15.6597C37.767 15.8096 38.0667 16.3396 37.9168 16.8467L35.1973 26.3074C35.0821 26.7222 34.7018 26.9988 34.2754 26.9988ZM20.021 27.0795C19.6061 27.0795 19.2143 26.8029 19.0991 26.3881L16.4487 17.1693C16.2989 16.6623 16.5985 16.1207 17.1055 15.9824C17.6126 15.8326 18.1542 16.1322 18.2924 16.6392L20.9428 25.858C21.0926 26.365 20.793 26.9066 20.286 27.0449C20.2053 27.068 20.1131 27.0795 20.021 27.0795ZM13.7637 27.4828C13.395 27.4828 13.0377 27.2639 12.8879 26.9066L9.79966 19.9234C9.58072 19.4394 9.79966 18.8748 10.2952 18.6558C10.7792 18.4369 11.3438 18.6558 11.5627 19.1514L14.651 26.1346C14.87 26.6185 14.651 27.1832 14.1555 27.4021C14.0288 27.4597 13.902 27.4828 13.7637 27.4828Z" fill="#70C9E9"/>
<path d="M53.4854 55.9688C52.2408 57.5359 50.3164 58.55 48.15 58.55C46.6059 58.55 45.1885 58.0314 44.0477 57.1787C42.3998 55.9342 41.3281 53.9637 41.3281 51.7396C41.3281 49.5732 42.3307 47.6488 43.9094 46.4043C42.976 47.5682 42.4229 49.0432 42.4229 50.6334C42.4229 52.8574 43.483 54.8279 45.1309 56.0725C46.2717 56.9367 47.7006 57.4437 49.2332 57.4437C50.8465 57.4437 52.3215 56.8906 53.4854 55.9688Z" fill="#58B4D9"/>
<path d="M54.9603 51.7398C54.9603 53.3416 54.4071 54.8166 53.4853 55.9689C52.3214 56.8908 50.8464 57.4439 49.2561 57.4439C47.712 57.4439 46.2946 56.9254 45.1538 56.0727C43.506 54.8281 42.4458 52.8576 42.4458 50.6336C42.4458 49.0318 42.9989 47.5568 43.9323 46.4045C45.0962 45.4711 46.5712 44.918 48.1614 44.918C48.5417 44.918 48.9104 44.9525 49.2677 45.0102C52.4942 45.5402 54.9603 48.352 54.9603 51.7398Z" fill="#70C9E9"/>
<path d="M51.6417 50.7709H49.1181V48.2357C49.1181 47.7057 48.6917 47.2793 48.1616 47.2793C47.6315 47.2793 47.2052 47.7057 47.2052 48.2357V50.7709H44.6815C44.1515 50.7709 43.7251 51.1973 43.7251 51.7273C43.7251 52.2574 44.1515 52.6838 44.6815 52.6838H47.2052V55.2189C47.2052 55.749 47.6315 56.1754 48.1616 56.1754C48.6917 56.1754 49.1181 55.749 49.1181 55.2189V52.6838H51.6417C52.1718 52.6838 52.5981 52.2574 52.5981 51.7273C52.5981 51.1973 52.1718 50.7709 51.6417 50.7709Z" fill="#EA6552"/>
</svg>
