<svg width="25" height="24" viewBox="0 0 25 24" fill="none" xmlns="http://www.w3.org/2000/svg">
<path fill-rule="evenodd" clip-rule="evenodd" d="M8.98671 6.87095C8.98671 4.95928 10.5309 3.40779 12.4499 3.40779C14.36 3.40779 15.9123 4.95954 15.913 6.86952C15.9045 8.73213 14.4498 10.2412 12.616 10.3236C12.5051 10.3155 12.3875 10.3159 12.2761 10.3237C10.4406 10.2421 8.98671 8.73207 8.98671 6.87095ZM12.4499 2C9.75131 2 7.57892 4.18385 7.57892 6.87095C7.57892 9.50199 9.65268 11.6443 12.2667 11.7321C12.2958 11.7331 12.325 11.7323 12.354 11.7296C12.4171 11.7239 12.4847 11.7245 12.53 11.729C12.5611 11.7321 12.5924 11.7332 12.6237 11.7321C15.2382 11.6442 17.3099 9.50213 17.3208 6.87389L17.3208 6.87095C17.3208 4.18281 15.138 2 12.4499 2ZM17.6929 13.9064C16.2668 12.9539 14.4214 12.4998 12.6117 12.4998C10.8018 12.4998 8.95282 12.954 7.51834 13.9051L7.51576 13.9069C6.23434 14.7647 5.5 15.9629 5.5 17.2499C5.5 18.5371 6.23459 19.7333 7.51673 20.5865C8.94713 21.5433 10.7945 22 12.6046 22C14.4151 22 16.2629 21.5431 17.6934 20.586L17.6935 20.5859C18.975 19.7281 19.7093 18.5299 19.7093 17.2428C19.7093 15.9557 18.9748 14.7597 17.6929 13.9064ZM6.90779 17.2499C6.90779 16.5405 7.30871 15.74 8.29759 15.0776C9.45332 14.3118 11.0153 13.9076 12.6117 13.9076C14.2089 13.9076 15.7656 14.3121 16.911 15.0771L16.9121 15.0778C17.9007 15.7356 18.3015 16.5336 18.3015 17.2428C18.3015 17.9525 17.9002 18.7534 16.9104 19.416C15.76 20.1857 14.2009 20.5922 12.6046 20.5922C11.0083 20.5922 9.44918 20.1857 8.29875 19.4159L8.29721 19.4149C7.30855 18.7571 6.90779 17.9591 6.90779 17.2499Z" fill="#E47F46"/>
</svg>
