<svg width="15" height="21" viewBox="0 0 15 21" fill="none" xmlns="http://www.w3.org/2000/svg">
<path fill-rule="evenodd" clip-rule="evenodd" d="M3.48671 5.37095C3.48671 3.45928 5.03088 1.90779 6.94987 1.90779C8.86003 1.90779 10.4123 3.45954 10.413 5.36952C10.4045 7.23213 8.94976 8.74118 7.11599 8.82357C7.00505 8.81553 6.88745 8.81591 6.77614 8.82365C4.94056 8.74213 3.48671 7.23207 3.48671 5.37095ZM6.94987 0.5C4.25131 0.5 2.07892 2.68385 2.07892 5.37095C2.07892 8.00199 4.15268 10.1443 6.76667 10.2321C6.79582 10.2331 6.825 10.2323 6.85405 10.2296C6.91711 10.2239 6.98474 10.2245 7.02999 10.229C7.06112 10.2321 7.09242 10.2332 7.12368 10.2321C9.73819 10.1442 11.8099 8.00213 11.8208 5.37389L11.8208 5.37095C11.8208 2.68281 9.63801 0.5 6.94987 0.5ZM12.1929 12.4064C10.7668 11.4539 8.92135 10.9998 7.11169 10.9998C5.3018 10.9998 3.45282 11.454 2.01834 12.4051L2.01576 12.4069C0.734343 13.2647 0 14.4629 0 15.7499C0 17.0371 0.734593 18.2333 2.01673 19.0865C3.44713 20.0433 5.2945 20.5 7.10465 20.5C8.91514 20.5 10.7629 20.0431 12.1934 19.086L12.1935 19.0859C13.475 18.2281 14.2093 17.0299 14.2093 15.7428C14.2093 14.4557 13.4748 13.2597 12.1929 12.4064ZM1.40779 15.7499C1.40779 15.0405 1.80871 14.24 2.79759 13.5776C3.95332 12.8118 5.51532 12.4076 7.11169 12.4076C8.70887 12.4076 10.2656 12.8121 11.411 13.5771L11.4121 13.5778C12.4007 14.2356 12.8015 15.0336 12.8015 15.7428C12.8015 16.4525 12.4002 17.2534 11.4104 17.916C10.26 18.6857 8.70094 19.0922 7.10465 19.0922C5.50829 19.0922 3.94918 18.6857 2.79875 17.9159L2.79721 17.9149C1.80855 17.2571 1.40779 16.4591 1.40779 15.7499Z" fill="#212121"/>
</svg>
