<svg width="61" height="61" viewBox="0 0 61 61" fill="none" xmlns="http://www.w3.org/2000/svg">
<path d="M44.2316 4.82912C44.2316 2.16738 46.3893 0.00976562 49.0509 0.00976562H11.5386C9.42198 0.00976562 7.70605 1.72569 7.70605 3.84233V47.4856H44.2314L44.2316 4.82912Z" fill="#FFE07D"/>
<path d="M46.1408 0.00976562C43.4791 0.00976562 41.3214 2.1675 41.3214 4.82912V23.9411C41.3214 25.0656 40.5829 26.0659 39.5006 26.3711C31.5197 28.6215 25.6699 35.9552 25.6699 44.656C25.6699 46.9435 26.0745 49.1365 26.8155 51.1675H44.2311V4.82912C44.2311 2.16738 46.3888 0.00976562 49.0504 0.00976562H46.1408Z" fill="#FFD064"/>
<path d="M38.4059 8.32159H14.2604C13.752 8.32159 13.3398 7.90955 13.3398 7.40103C13.3398 6.8925 13.7519 6.48047 14.2604 6.48047H38.4059C38.9143 6.48047 39.3265 6.8925 39.3265 7.40103C39.3265 7.90955 38.9143 8.32159 38.4059 8.32159ZM38.4059 17.5007H14.2604C13.752 17.5007 13.3398 17.0887 13.3398 16.5802C13.3398 16.0716 13.7519 15.6596 14.2604 15.6596H38.4059C38.9143 15.6596 39.3265 16.0716 39.3265 16.5802C39.3265 17.0887 38.9143 17.5007 38.4059 17.5007ZM38.4059 26.6801H14.2604C14.1395 26.6801 14.0198 26.6563 13.9081 26.6101C13.7964 26.5638 13.6949 26.496 13.6094 26.4105C13.524 26.325 13.4561 26.2235 13.4099 26.1119C13.3636 26.0002 13.3398 25.8804 13.3398 25.7596C13.3398 25.6387 13.3636 25.5189 13.4099 25.4072C13.4561 25.2956 13.524 25.1941 13.6094 25.1086C13.6949 25.0231 13.7964 24.9553 13.9081 24.909C14.0198 24.8628 14.1395 24.839 14.2604 24.839H38.4059C38.9143 24.839 39.3265 25.251 39.3265 25.7596C39.3265 26.2681 38.9143 26.6801 38.4059 26.6801ZM38.4059 35.8594H14.2604C13.752 35.8594 13.3398 35.4473 13.3398 34.9388C13.3398 34.4303 13.7519 34.0183 14.2604 34.0183H38.4059C38.9143 34.0183 39.3265 34.4303 39.3265 34.9388C39.3265 35.4473 38.9143 35.8594 38.4059 35.8594Z" fill="#2B4D66"/>
<path d="M39.828 51.1684H6.81378C3.05066 51.1684 0 48.1177 0 44.3545V43.1478C3.15808e-05 42.9947 0.0608846 42.8478 0.169179 42.7395C0.277473 42.6312 0.424342 42.5703 0.577493 42.5703H39.828V51.1684Z" fill="#EAB14D"/>
<path d="M25.6699 44.6569C25.6699 46.9444 26.0745 49.1374 26.8155 51.1684H39.8278V42.5703H25.7845C25.7085 43.2633 25.6702 43.9598 25.6699 44.6569Z" fill="#E49542"/>
<path d="M44.6674 60.989C53.6875 60.989 60.9998 53.6768 60.9998 44.6566C60.9998 35.6365 53.6875 28.3242 44.6674 28.3242C35.6472 28.3242 28.335 35.6365 28.335 44.6566C28.335 53.6768 35.6472 60.989 44.6674 60.989Z" fill="#DD636E"/>
<path d="M44.6678 28.3242C44.2348 28.3242 43.8059 28.3414 43.3813 28.3745C51.8001 29.0305 58.4273 36.0695 58.4273 44.6566C58.4273 53.2437 51.8 60.2828 43.3813 60.9388C43.8059 60.9719 44.2348 60.989 44.6678 60.989C53.688 60.989 61.0003 53.6767 61.0003 44.6566C61.0003 35.6365 53.688 28.3242 44.6678 28.3242Z" fill="#DA4A54"/>
<path d="M44.667 56.8389C51.395 56.8389 56.8492 51.3848 56.8492 44.6568C56.8492 37.9287 51.395 32.4746 44.667 32.4746C37.939 32.4746 32.4849 37.9287 32.4849 44.6568C32.4849 51.3848 37.939 56.8389 44.667 56.8389Z" fill="#F4FBFF"/>
<path d="M44.6672 32.4746C44.1027 32.4746 43.5474 32.5139 43.0034 32.5881C48.9443 33.3996 53.5218 38.4931 53.5218 44.6568C53.5218 50.8204 48.9442 55.914 43.0034 56.7254C43.5474 56.7997 44.1027 56.8389 44.6672 56.8389C51.3952 56.8389 56.8493 51.3848 56.8493 44.6566C56.8493 37.9288 51.3952 32.4746 44.6672 32.4746Z" fill="#DAF1F4"/>
<path d="M44.6669 37.1437C44.546 37.1437 44.4263 37.1199 44.3146 37.0736C44.2029 37.0274 44.1015 36.9596 44.016 36.8741C43.9305 36.7886 43.8627 36.6871 43.8164 36.5754C43.7702 36.4637 43.7464 36.344 43.7464 36.2231V35.8014C43.7464 35.6805 43.7702 35.5608 43.8164 35.4491C43.8627 35.3374 43.9305 35.2359 44.016 35.1504C44.1015 35.065 44.2029 34.9972 44.3146 34.9509C44.4263 34.9046 44.546 34.8808 44.6669 34.8809C44.7878 34.8808 44.9075 34.9046 45.0192 34.9509C45.1309 34.9972 45.2324 35.065 45.3179 35.1504C45.4034 35.2359 45.4712 35.3374 45.5175 35.4491C45.5637 35.5608 45.5875 35.6805 45.5875 35.8014V36.2231C45.5875 36.344 45.5637 36.4637 45.5175 36.5754C45.4712 36.6871 45.4034 36.7886 45.3179 36.8741C45.2324 36.9596 45.1309 37.0274 45.0192 37.0736C44.9075 37.1199 44.7878 37.1437 44.6669 37.1437ZM50.63 39.6136C50.4479 39.6136 50.2699 39.5597 50.1185 39.4585C49.9671 39.3573 49.8491 39.2136 49.7794 39.0453C49.7097 38.8771 49.6915 38.692 49.7271 38.5134C49.7627 38.3348 49.8504 38.1708 49.9792 38.0421L50.2774 37.744C50.3629 37.6586 50.4644 37.5908 50.576 37.5446C50.6877 37.4983 50.8074 37.4746 50.9283 37.4746C51.0492 37.4746 51.1689 37.4985 51.2805 37.5448C51.3922 37.591 51.4937 37.6589 51.5791 37.7444C51.6646 37.8299 51.7323 37.9314 51.7786 38.0431C51.8248 38.1547 51.8486 38.2745 51.8485 38.3953C51.8485 38.5162 51.8247 38.6359 51.7784 38.7476C51.7321 38.8592 51.6643 38.9607 51.5788 39.0461L51.2806 39.3442C51.1953 39.4297 51.0938 39.4976 50.9822 39.5438C50.8705 39.5901 50.7508 39.6138 50.63 39.6136ZM53.5216 45.5766H53.0999C52.5915 45.5766 52.1794 45.1646 52.1794 44.6561C52.1794 44.1476 52.5914 43.7355 53.0999 43.7355H53.5216C54.03 43.7355 54.4422 44.1476 54.4422 44.6561C54.4422 45.1646 54.03 45.5766 53.5216 45.5766ZM36.2338 45.5766H35.8122C35.3038 45.5766 34.8916 45.1646 34.8916 44.6561C34.8916 44.1476 35.3036 43.7355 35.8122 43.7355H36.2338C36.7422 43.7355 37.1544 44.1476 37.1544 44.6561C37.1544 45.1646 36.7424 45.5766 36.2338 45.5766ZM50.9282 51.8379C50.8074 51.8381 50.6877 51.8144 50.576 51.7681C50.4643 51.7219 50.3629 51.654 50.2775 51.5685L49.9793 51.2705C49.8938 51.185 49.826 51.0836 49.7797 50.9719C49.7334 50.8602 49.7096 50.7405 49.7095 50.6197C49.7095 50.4988 49.7333 50.3791 49.7795 50.2674C49.8257 50.1557 49.8935 50.0542 49.979 49.9687C50.0644 49.8832 50.1658 49.8153 50.2775 49.7689C50.3892 49.7226 50.5089 49.6988 50.6298 49.6987C50.7507 49.6987 50.8704 49.7225 50.9821 49.7687C51.0938 49.815 51.1953 49.8828 51.2807 49.9683L51.5789 50.2664C51.7077 50.3951 51.7954 50.5591 51.831 50.7377C51.8666 50.9162 51.8484 51.1014 51.7787 51.2696C51.7091 51.4378 51.5911 51.5816 51.4397 51.6828C51.2883 51.784 51.1103 51.8379 50.9282 51.8379ZM44.6669 54.4314C44.546 54.4314 44.4263 54.4076 44.3146 54.3614C44.2029 54.3151 44.1015 54.2473 44.016 54.1618C43.9305 54.0763 43.8627 53.9749 43.8164 53.8632C43.7702 53.7515 43.7464 53.6318 43.7464 53.5109V53.0892C43.7464 52.9683 43.7702 52.8486 43.8164 52.7369C43.8627 52.6252 43.9305 52.5237 44.016 52.4382C44.1015 52.3527 44.2029 52.2849 44.3146 52.2387C44.4263 52.1924 44.546 52.1686 44.6669 52.1686C44.7878 52.1686 44.9075 52.1924 45.0192 52.2387C45.1309 52.2849 45.2324 52.3527 45.3179 52.4382C45.4034 52.5237 45.4712 52.6252 45.5175 52.7369C45.5637 52.8486 45.5875 52.9683 45.5875 53.0892V53.5109C45.5875 53.6318 45.5637 53.7515 45.5175 53.8632C45.4712 53.9749 45.4034 54.0763 45.3179 54.1618C45.2324 54.2473 45.1309 54.3151 45.0192 54.3614C44.9075 54.4076 44.7878 54.4314 44.6669 54.4314ZM38.4058 51.8379C38.2237 51.8379 38.0457 51.784 37.8943 51.6828C37.743 51.5817 37.625 51.4379 37.5553 51.2697C37.4856 51.1015 37.4674 50.9164 37.5029 50.7378C37.5384 50.5593 37.626 50.3953 37.7548 50.2665L38.0528 49.9685C38.1382 49.8826 38.2397 49.8144 38.3515 49.7678C38.4633 49.7213 38.5832 49.6972 38.7043 49.697C38.8254 49.6969 38.9453 49.7206 39.0572 49.7669C39.1692 49.8131 39.2708 49.881 39.3565 49.9667C39.4421 50.0523 39.51 50.154 39.5563 50.2659C39.6025 50.3778 39.6263 50.4978 39.6261 50.6189C39.6259 50.74 39.6019 50.8599 39.5553 50.9716C39.5087 51.0834 39.4405 51.1849 39.3547 51.2703L39.0566 51.5684C38.9712 51.6539 38.8698 51.7218 38.7581 51.7681C38.6464 51.8143 38.5267 51.8381 38.4058 51.8379ZM38.7038 39.6136C38.5829 39.6137 38.4631 39.59 38.3514 39.5437C38.2397 39.4975 38.1382 39.4296 38.0528 39.344L37.7548 39.046C37.6689 38.9606 37.6007 38.8591 37.5541 38.7473C37.5076 38.6355 37.4835 38.5156 37.4833 38.3945C37.4832 38.2734 37.5069 38.1535 37.5532 38.0416C37.5994 37.9297 37.6673 37.828 37.753 37.7423C37.8386 37.6567 37.9403 37.5888 38.0522 37.5425C38.1641 37.4963 38.2841 37.4725 38.4052 37.4727C38.5263 37.4729 38.6462 37.4969 38.7579 37.5435C38.8697 37.5901 38.9712 37.6583 39.0566 37.7441L39.3547 38.0422C39.4834 38.1709 39.571 38.3349 39.6066 38.5135C39.6421 38.6921 39.6238 38.8771 39.5542 39.0453C39.4845 39.2135 39.3665 39.3573 39.2152 39.4584C39.0638 39.5596 38.8859 39.6136 38.7038 39.6136Z" fill="#365E7D"/>
<path d="M47.1771 45.5765H44.6681C44.5472 45.5765 44.4275 45.5527 44.3158 45.5065C44.2041 45.4602 44.1026 45.3924 44.0171 45.3069C43.9317 45.2214 43.8639 45.1199 43.8176 45.0082C43.7713 44.8965 43.7475 44.7768 43.7476 44.6559V39.7975C43.7475 39.6766 43.7713 39.5569 43.8176 39.4452C43.8639 39.3335 43.9317 39.232 44.0171 39.1465C44.1026 39.0611 44.2041 38.9933 44.3158 38.947C44.4275 38.9007 44.5472 38.8769 44.6681 38.877C44.789 38.8769 44.9087 38.9007 45.0204 38.947C45.1321 38.9933 45.2336 39.0611 45.3191 39.1465C45.4046 39.232 45.4724 39.3335 45.5186 39.4452C45.5649 39.5569 45.5887 39.6766 45.5887 39.7975V43.7354H47.1771C47.6855 43.7354 48.0977 44.1474 48.0977 44.6559C48.0977 45.1645 47.6857 45.5765 47.1771 45.5765Z" fill="#2B4D66"/>
<path d="M53.0124 12.1033H44.2314V4.82912C44.2314 2.16738 46.3892 0.00976562 49.0508 0.00976562C51.7125 0.00976562 53.8702 2.1675 53.8702 4.82912V11.2454C53.8702 11.3581 53.848 11.4696 53.8049 11.5737C53.7618 11.6778 53.6986 11.7724 53.619 11.8521C53.5393 11.9317 53.4448 11.9949 53.3407 12.038C53.2366 12.0811 53.125 12.1033 53.0124 12.1033Z" fill="#EAB14D"/>
<path d="M50.6208 0.272783C50.1157 0.0985068 49.5851 0.00961716 49.0508 0.00976581C46.3892 0.00976581 44.2314 2.1675 44.2314 4.82912V12.1033H47.3714V4.82912C47.3713 2.71736 48.7302 0.92413 50.6208 0.272783Z" fill="#E49542"/>
</svg>
