<svg width="39" height="39" viewBox="0 0 39 39" fill="none" xmlns="http://www.w3.org/2000/svg">
<path d="M5.48438 5.48438C4.67629 5.48438 3.90131 5.80538 3.32991 6.37678C2.75851 6.94818 2.4375 7.72317 2.4375 8.53125V14.0156C2.4375 14.1772 2.5017 14.3322 2.61598 14.4465C2.73026 14.5608 2.88526 14.625 3.04688 14.625C3.20849 14.625 3.36349 14.5608 3.47777 14.4465C3.59205 14.3322 3.65625 14.1772 3.65625 14.0156V8.53125C3.65625 8.0464 3.84886 7.58141 4.1917 7.23857C4.53454 6.89573 4.99953 6.70312 5.48438 6.70312H12.4922C12.6538 6.70312 12.8088 6.63892 12.9231 6.52464C13.0374 6.41036 13.1016 6.25537 13.1016 6.09375C13.1016 5.93213 13.0374 5.77714 12.9231 5.66286C12.8088 5.54858 12.6538 5.48438 12.4922 5.48438H5.48438ZM26.5078 5.48438C26.3462 5.48438 26.1912 5.54858 26.0769 5.66286C25.9626 5.77714 25.8984 5.93213 25.8984 6.09375C25.8984 6.25537 25.9626 6.41036 26.0769 6.52464C26.1912 6.63892 26.3462 6.70312 26.5078 6.70312H33.5156C34.0005 6.70312 34.4655 6.89573 34.8083 7.23857C35.1511 7.58141 35.3438 8.0464 35.3438 8.53125V14.0156C35.3438 14.1772 35.408 14.3322 35.5222 14.4465C35.6365 14.5608 35.7915 14.625 35.9531 14.625C36.1147 14.625 36.2697 14.5608 36.384 14.4465C36.4983 14.3322 36.5625 14.1772 36.5625 14.0156V8.53125C36.5625 7.72317 36.2415 6.94818 35.6701 6.37678C35.0987 5.80538 34.3237 5.48438 33.5156 5.48438H26.5078ZM3.65625 24.9844C3.65625 24.8228 3.59205 24.6678 3.47777 24.5535C3.36349 24.4392 3.20849 24.375 3.04688 24.375C2.88526 24.375 2.73026 24.4392 2.61598 24.5535C2.5017 24.6678 2.4375 24.8228 2.4375 24.9844V30.4688C2.4375 31.2768 2.75851 32.0518 3.32991 32.6232C3.90131 33.1946 4.67629 33.5156 5.48438 33.5156H12.4922C12.6538 33.5156 12.8088 33.4514 12.9231 33.3371C13.0374 33.2229 13.1016 33.0679 13.1016 32.9062C13.1016 32.7446 13.0374 32.5896 12.9231 32.4754C12.8088 32.3611 12.6538 32.2969 12.4922 32.2969H5.48438C4.99953 32.2969 4.53454 32.1043 4.1917 31.7614C3.84886 31.4186 3.65625 30.9536 3.65625 30.4688V24.9844ZM36.5625 24.9844C36.5625 24.8228 36.4983 24.6678 36.384 24.5535C36.2697 24.4392 36.1147 24.375 35.9531 24.375C35.7915 24.375 35.6365 24.4392 35.5222 24.5535C35.408 24.6678 35.3438 24.8228 35.3438 24.9844V30.4688C35.3438 30.9536 35.1511 31.4186 34.8083 31.7614C34.4655 32.1043 34.0005 32.2969 33.5156 32.2969H26.5078C26.3462 32.2969 26.1912 32.3611 26.0769 32.4754C25.9626 32.5896 25.8984 32.7446 25.8984 32.9062C25.8984 33.0679 25.9626 33.2229 26.0769 33.3371C26.1912 33.4514 26.3462 33.5156 26.5078 33.5156H33.5156C34.3237 33.5156 35.0987 33.1946 35.6701 32.6232C36.2415 32.0518 36.5625 31.2768 36.5625 30.4688V24.9844ZM9.14062 12.7969C9.14062 12.6353 9.07642 12.4803 8.96214 12.366C8.84786 12.2517 8.69287 12.1875 8.53125 12.1875C8.36963 12.1875 8.21464 12.2517 8.10036 12.366C7.98608 12.4803 7.92188 12.6353 7.92188 12.7969V26.2031C7.92188 26.3647 7.98608 26.5197 8.10036 26.634C8.21464 26.7483 8.36963 26.8125 8.53125 26.8125C8.69287 26.8125 8.84786 26.7483 8.96214 26.634C9.07642 26.5197 9.14062 26.3647 9.14062 26.2031V12.7969ZM12.1875 12.1875C12.3491 12.1875 12.5041 12.2517 12.6184 12.366C12.7327 12.4803 12.7969 12.6353 12.7969 12.7969V26.2031C12.7969 26.3647 12.7327 26.5197 12.6184 26.634C12.5041 26.7483 12.3491 26.8125 12.1875 26.8125C12.0259 26.8125 11.8709 26.7483 11.7566 26.634C11.6423 26.5197 11.5781 26.3647 11.5781 26.2031V12.7969C11.5781 12.6353 11.6423 12.4803 11.7566 12.366C11.8709 12.2517 12.0259 12.1875 12.1875 12.1875ZM16.4531 12.7969C16.4531 12.6353 16.3889 12.4803 16.2746 12.366C16.1604 12.2517 16.0054 12.1875 15.8438 12.1875C15.6821 12.1875 15.5271 12.2517 15.4129 12.366C15.2986 12.4803 15.2344 12.6353 15.2344 12.7969V26.2031C15.2344 26.3647 15.2986 26.5197 15.4129 26.634C15.5271 26.7483 15.6821 26.8125 15.8438 26.8125C16.0054 26.8125 16.1604 26.7483 16.2746 26.634C16.3889 26.5197 16.4531 26.3647 16.4531 26.2031V12.7969ZM19.5 12.1875C19.6616 12.1875 19.8166 12.2517 19.9309 12.366C20.0452 12.4803 20.1094 12.6353 20.1094 12.7969V26.2031C20.1094 26.3647 20.0452 26.5197 19.9309 26.634C19.8166 26.7483 19.6616 26.8125 19.5 26.8125C19.3384 26.8125 19.1834 26.7483 19.0691 26.634C18.9548 26.5197 18.8906 26.3647 18.8906 26.2031V12.7969C18.8906 12.6353 18.9548 12.4803 19.0691 12.366C19.1834 12.2517 19.3384 12.1875 19.5 12.1875ZM23.7656 12.7969C23.7656 12.6353 23.7014 12.4803 23.5871 12.366C23.4729 12.2517 23.3179 12.1875 23.1562 12.1875C22.9946 12.1875 22.8396 12.2517 22.7254 12.366C22.6111 12.4803 22.5469 12.6353 22.5469 12.7969V26.2031C22.5469 26.3647 22.6111 26.5197 22.7254 26.634C22.8396 26.7483 22.9946 26.8125 23.1562 26.8125C23.3179 26.8125 23.4729 26.7483 23.5871 26.634C23.7014 26.5197 23.7656 26.3647 23.7656 26.2031V12.7969ZM26.8125 12.1875C26.9741 12.1875 27.1291 12.2517 27.2434 12.366C27.3577 12.4803 27.4219 12.6353 27.4219 12.7969V26.2031C27.4219 26.3647 27.3577 26.5197 27.2434 26.634C27.1291 26.7483 26.9741 26.8125 26.8125 26.8125C26.6509 26.8125 26.4959 26.7483 26.3816 26.634C26.2673 26.5197 26.2031 26.3647 26.2031 26.2031V12.7969C26.2031 12.6353 26.2673 12.4803 26.3816 12.366C26.4959 12.2517 26.6509 12.1875 26.8125 12.1875ZM31.0781 12.7969C31.0781 12.6353 31.0139 12.4803 30.8996 12.366C30.7854 12.2517 30.6304 12.1875 30.4688 12.1875C30.3071 12.1875 30.1521 12.2517 30.0379 12.366C29.9236 12.4803 29.8594 12.6353 29.8594 12.7969V26.2031C29.8594 26.3647 29.9236 26.5197 30.0379 26.634C30.1521 26.7483 30.3071 26.8125 30.4688 26.8125C30.6304 26.8125 30.7854 26.7483 30.8996 26.634C31.0139 26.5197 31.0781 26.3647 31.0781 26.2031V12.7969Z" fill="white"/>
</svg>
