<svg width="28" height="21" viewBox="0 0 28 21" fill="none" xmlns="http://www.w3.org/2000/svg">
<path fill-rule="evenodd" clip-rule="evenodd" d="M19 0.0117188C16.593 0.0117188 14.568 1.73772 14.102 4.01172H1C0.734784 4.01172 0.48043 4.11708 0.292893 4.30461C0.105357 4.49215 0 4.7465 0 5.01172C0 5.27694 0.105357 5.53129 0.292893 5.71883C0.48043 5.90636 0.734784 6.01172 1 6.01172H14.102C14.568 8.28672 16.592 10.0117 19 10.0117C21.408 10.0117 23.432 8.28672 23.898 6.01172H27C27.2652 6.01172 27.5196 5.90636 27.7071 5.71883C27.8946 5.53129 28 5.27694 28 5.01172C28 4.7465 27.8946 4.49215 27.7071 4.30461C27.5196 4.11708 27.2652 4.01172 27 4.01172H23.898C23.432 1.73772 21.408 0.0117188 19 0.0117188ZM19 2.01172C20.669 2.01172 22 3.34272 22 5.01172C22 6.68072 20.669 8.01172 19 8.01172C17.331 8.01172 16 6.68072 16 5.01172C16 3.34272 17.331 2.01172 19 2.01172ZM9 10.0117C6.593 10.0117 4.568 11.7377 4.102 14.0117H1C0.734784 14.0117 0.48043 14.1171 0.292893 14.3046C0.105357 14.4921 0 14.7465 0 15.0117C0 15.2769 0.105357 15.5313 0.292893 15.7188C0.48043 15.9064 0.734784 16.0117 1 16.0117H4.102C4.568 18.2867 6.592 20.0117 9 20.0117C11.408 20.0117 13.432 18.2867 13.898 16.0117H27C27.2652 16.0117 27.5196 15.9064 27.7071 15.7188C27.8946 15.5313 28 15.2769 28 15.0117C28 14.7465 27.8946 14.4921 27.7071 14.3046C27.5196 14.1171 27.2652 14.0117 27 14.0117H13.898C13.432 11.7377 11.408 10.0117 9 10.0117ZM9 12.0117C10.669 12.0117 12 13.3427 12 15.0117C12 16.6807 10.669 18.0117 9 18.0117C7.331 18.0117 6 16.6807 6 15.0117C6 13.3427 7.331 12.0117 9 12.0117Z" fill="#E47F46"/>
</svg>
