<svg width="192" height="192" viewBox="0 0 192 192" fill="none" xmlns="http://www.w3.org/2000/svg">
<path d="M68 176C64.8355 176 61.7421 175.062 59.1109 173.304C56.4797 171.545 54.4289 169.047 53.2179 166.123C52.0069 163.199 51.6901 159.982 52.3074 156.879C52.9248 153.775 54.4487 150.924 56.6863 148.686C58.9239 146.449 61.7749 144.925 64.8786 144.307C67.9823 143.69 71.1993 144.007 74.1229 145.218C77.0466 146.429 79.5454 148.48 81.3035 151.111C83.0616 153.742 84 156.836 84 160C84 164.243 82.3143 168.313 79.3137 171.314C76.3131 174.314 72.2435 176 68 176ZM68 152C66.4178 152 64.871 152.469 63.5554 153.348C62.2399 154.227 61.2145 155.477 60.609 156.939C60.0035 158.4 59.845 160.009 60.1537 161.561C60.4624 163.113 61.2243 164.538 62.3432 165.657C63.462 166.776 64.8874 167.538 66.4393 167.846C67.9911 168.155 69.5997 167.997 71.0615 167.391C72.5233 166.786 73.7727 165.76 74.6518 164.445C75.5308 163.129 76 161.582 76 160C76 157.878 75.1572 155.843 73.6569 154.343C72.1566 152.843 70.1217 152 68 152ZM124 176C120.836 176 117.742 175.062 115.111 173.304C112.48 171.545 110.429 169.047 109.218 166.123C108.007 163.199 107.69 159.982 108.307 156.879C108.925 153.775 110.449 150.924 112.686 148.686C114.924 146.449 117.775 144.925 120.879 144.307C123.982 143.69 127.199 144.007 130.123 145.218C133.047 146.429 135.545 148.48 137.304 151.111C139.062 153.742 140 156.836 140 160C140 164.243 138.314 168.313 135.314 171.314C132.313 174.314 128.243 176 124 176ZM124 152C122.418 152 120.871 152.469 119.555 153.348C118.24 154.227 117.214 155.477 116.609 156.939C116.003 158.4 115.845 160.009 116.154 161.561C116.462 163.113 117.224 164.538 118.343 165.657C119.462 166.776 120.887 167.538 122.439 167.846C123.991 168.155 125.6 167.997 127.061 167.391C128.523 166.786 129.773 165.76 130.652 164.445C131.531 163.129 132 161.582 132 160C132 157.878 131.157 155.843 129.657 154.343C128.157 152.843 126.122 152 124 152Z" fill="#E7E7E7"/>
<path d="M148 152H48C42.6957 152 37.6086 149.893 33.8579 146.142C30.1071 142.391 28 137.304 28 132C28 126.696 30.1071 121.609 33.8579 117.858C37.6086 114.107 42.6957 112 48 112H116C117.061 112 118.078 112.421 118.828 113.172C119.579 113.922 120 114.939 120 116C120 117.061 119.579 118.078 118.828 118.828C118.078 119.579 117.061 120 116 120H48C44.8174 120 41.7652 121.264 39.5147 123.515C37.2643 125.765 36 128.817 36 132C36 135.183 37.2643 138.235 39.5147 140.485C41.7652 142.736 44.8174 144 48 144H148C149.061 144 150.078 144.421 150.828 145.172C151.579 145.922 152 146.939 152 148C152 149.061 151.579 150.078 150.828 150.828C150.078 151.579 149.061 152 148 152Z" fill="#E7E7E7"/>
<path d="M142.768 120H66.4C63.6764 120.012 61.0308 119.092 58.9019 117.393C56.7731 115.694 55.2891 113.318 54.696 110.66L37.512 35.1121C37.3103 34.2262 36.813 33.4354 36.102 32.8698C35.391 32.3041 34.5086 31.9974 33.6 32.0001H16C14.9391 32.0001 13.9217 31.5787 13.1716 30.8285C12.4214 30.0784 12 29.061 12 28.0001C12 26.9392 12.4214 25.9218 13.1716 25.1717C13.9217 24.4215 14.9391 24.0001 16 24.0001H33.6C36.3236 23.9886 38.9692 24.9086 41.0981 26.6074C43.2269 28.3063 44.7109 30.6819 45.304 33.3401L62.476 108.888C62.6781 109.776 63.1772 110.568 63.8907 111.134C64.6042 111.7 65.4894 112.006 66.4 112H142.8C143.578 112 144.339 111.772 144.99 111.346C145.64 110.92 146.153 110.313 146.464 109.6L169.884 56.0001H160C158.939 56.0001 157.922 55.5787 157.172 54.8285C156.421 54.0784 156 53.061 156 52.0001C156 50.9392 156.421 49.9218 157.172 49.1717C157.922 48.4215 158.939 48.0001 160 48.0001H169.884C171.211 48.0028 172.516 48.3355 173.683 48.9683C174.849 49.6011 175.84 50.5141 176.566 51.6251C177.291 52.736 177.729 54.0101 177.84 55.3324C177.951 56.6548 177.731 57.9839 177.2 59.2001L153.76 112.8C152.826 114.939 151.289 116.76 149.337 118.038C147.385 119.317 145.102 119.999 142.768 120Z" fill="#E7E7E7"/>
<path d="M104 96C96.0888 96 88.3552 93.6541 81.7772 89.2588C75.1992 84.8635 70.0723 78.6164 67.0448 71.3074C64.0173 63.9983 63.2252 55.9556 64.7686 48.1964C66.312 40.4372 70.1217 33.3098 75.7158 27.7157C81.3099 22.1216 88.4372 18.312 96.1964 16.7686C103.956 15.2252 111.998 16.0173 119.307 19.0448C126.616 22.0723 132.864 27.1992 137.259 33.7772C141.654 40.3552 144 48.0888 144 56C143.988 66.6051 139.77 76.7725 132.271 84.2714C124.773 91.7704 114.605 95.9884 104 96ZM104 24C97.671 24 91.4842 25.8768 86.2218 29.393C80.9594 32.9092 76.8579 37.9069 74.4359 43.7541C72.0139 49.6014 71.3802 56.0355 72.6149 62.2429C73.8496 68.4503 76.8973 74.1522 81.3726 78.6274C85.8479 83.1027 91.5497 86.1504 97.7571 87.3851C103.965 88.6199 110.399 87.9862 116.246 85.5642C122.093 83.1422 127.091 79.0406 130.607 73.7783C134.123 68.5159 136 62.329 136 56C135.991 47.516 132.616 39.3822 126.617 33.3831C120.618 27.384 112.484 24.0095 104 24Z" fill="#E7E7E7"/>
<path d="M104 72C102.939 72 101.922 71.5786 101.172 70.8284C100.421 70.0783 100 69.0609 100 68V44C100 42.9391 100.421 41.9217 101.172 41.1716C101.922 40.4214 102.939 40 104 40C105.061 40 106.078 40.4214 106.828 41.1716C107.579 41.9217 108 42.9391 108 44V68C108 69.0609 107.579 70.0783 106.828 70.8284C106.078 71.5786 105.061 72 104 72Z" fill="#E7E7E7"/>
<path d="M116 60H92C90.9391 60 89.9217 59.5786 89.1716 58.8284C88.4214 58.0783 88 57.0609 88 56C88 54.9391 88.4214 53.9217 89.1716 53.1716C89.9217 52.4214 90.9391 52 92 52H116C117.061 52 118.078 52.4214 118.828 53.1716C119.579 53.9217 120 54.9391 120 56C120 57.0609 119.579 58.0783 118.828 58.8284C118.078 59.5786 117.061 60 116 60Z" fill="#E7E7E7"/>
</svg>
