<svg width="76" height="45" viewBox="0 0 76 45" fill="none" xmlns="http://www.w3.org/2000/svg">
<path d="M68.5746 1.31517C63.1762 1.31517 55.2244 4.67095 46.762 8.39148C45.5948 8.02672 44.3546 7.58902 43.1874 7.1513C30.3479 2.48239 17.0707 -2.33242 1.38608 1.24222L1.31313 1.31517L0 4.67095L0.364758 4.45209C0.364758 4.45209 3.57463 2.6283 10.4321 2.40944C16.7789 2.26354 27.6487 3.43077 43.4792 9.85052C39.3939 11.6743 35.3086 13.4981 31.3692 14.9571C30.7856 14.6653 30.275 14.3735 29.6913 14.0088C23.8552 10.7989 18.7486 8.02672 14.3715 8.02672C11.2346 8.02672 8.68125 10.58 8.68125 13.644C8.68125 16.7809 11.2346 19.3342 14.3715 19.3342C19.3322 19.3342 25.2413 17.6563 31.3692 15.3219C34.725 17.1457 38.2267 18.9695 42.0202 20.5015C41.5825 20.7933 41.1448 21.0121 40.707 21.231C38.5185 22.5441 36.257 23.8572 33.9955 24.9515C29.9831 22.763 26.2626 20.9392 23.0527 20.9392C21.0101 20.9392 19.3322 22.6171 19.3322 24.5868C19.3322 26.6294 21.0101 28.3073 23.0527 28.3073C26.7733 28.3073 30.4209 26.9942 33.9955 25.2433C34.5791 25.5351 35.6734 26.1917 35.6734 26.1917C37.716 27.3589 39.8316 28.4532 41.9472 29.4745C40.8529 30.1311 39.7587 30.8606 38.7373 31.6631C37.5701 32.3926 36.4758 33.1951 35.3816 33.8516C32.6824 32.7573 30.0561 32.1008 28.5971 32.1008C27.2839 32.1008 26.1897 33.1951 26.1897 34.5082C26.1897 35.8213 27.2839 36.9156 28.5971 36.9156C30.6397 36.9156 32.9742 35.7484 35.4545 34.1434C36.5488 34.6541 37.716 35.1647 38.8833 35.8213C41.5095 37.2803 45.9596 40.3443 45.9596 44.3567V44.5026L48.294 44.9403L48.367 44.7944C48.367 44.7214 48.6588 42.8976 47.4186 40.5632C46.2514 38.3746 43.6251 35.3106 37.2783 32.9762C37.789 32.6114 38.3726 32.2467 38.8833 31.8819C39.9775 31.0795 41.1448 30.3499 42.239 29.6204C45.1571 30.9336 48.0752 31.8819 50.7744 31.8819C52.4523 31.8819 53.7654 30.4958 53.7654 28.8909C53.7654 27.286 52.4523 25.8999 50.7744 25.8999C48.1481 25.8999 45.1571 27.4319 42.239 29.2557C40.1234 28.3073 37.9349 27.0671 35.8193 25.8999C35.8193 25.8999 34.798 25.3892 34.2873 25.0974C36.5488 24.0031 38.7373 22.763 40.8529 21.5228C41.3636 21.231 41.8743 20.9392 42.312 20.6474C47.0538 22.5441 52.1605 23.8572 57.7048 23.8572C60.2581 23.8572 62.3007 21.8146 62.3007 19.2613C62.3007 16.7809 60.2581 14.7383 57.7048 14.7383C52.5982 14.7383 47.3456 17.4375 42.312 20.3556C38.5914 18.8236 35.0168 16.9998 31.734 15.176C36.0381 13.4981 40.4882 11.5284 44.8653 9.55871C45.4489 9.26691 46.1055 9.04805 46.762 8.75624C54.2031 11.3825 61.3524 13.644 68.5746 13.644C73.0976 13.644 75.5779 11.7473 75.5779 8.31853C75.5779 4.45209 72.441 1.31517 68.5746 1.31517ZM14.3715 19.0424C11.3805 19.0424 8.97306 16.635 8.97306 13.644C8.97306 10.7259 11.3805 8.31853 14.3715 8.31853C18.6756 8.31853 23.7093 11.0907 29.5454 14.3006C30.0561 14.5924 30.4938 14.8112 31.0045 15.103C25.0224 17.4375 19.2592 19.0424 14.3715 19.0424ZM23.0527 28.0155C21.156 28.0155 19.624 26.4835 19.624 24.5868C19.624 22.763 21.156 21.231 23.0527 21.231C26.1167 21.231 29.7643 22.9818 33.7037 25.0974C30.202 26.7753 26.6274 28.0155 23.0527 28.0155ZM28.5971 36.6238C27.4298 36.6238 26.4815 35.6754 26.4815 34.5082C26.4815 33.341 27.4298 32.3926 28.5971 32.3926C29.9831 32.3926 32.4635 32.9762 35.0898 34.0705C32.6824 35.5295 30.4938 36.6238 28.5971 36.6238ZM47.1268 40.6361C48.1481 42.6058 48.1481 44.1378 48.0752 44.6485L46.2514 44.2837C46.1784 39.7607 40.78 36.0402 35.7463 33.9975C36.184 33.7057 36.5488 33.4139 36.9865 33.1951C43.3333 35.4566 46.0325 38.5205 47.1268 40.6361ZM50.7744 26.1917C52.2334 26.1917 53.4736 27.4319 53.4736 28.8909C53.4736 30.3499 52.2334 31.5901 50.7744 31.5901C48.1481 31.5901 45.376 30.6418 42.6038 29.4016C45.4489 27.6507 48.2211 26.1917 50.7744 26.1917ZM57.7048 15.0301C60.1122 15.0301 62.0089 16.9268 62.0089 19.2613C62.0089 21.5957 60.1122 23.5654 57.7048 23.5654C52.3064 23.5654 47.3456 22.2523 42.6767 20.5015C47.7834 17.5104 52.6711 15.0301 57.7048 15.0301ZM43.844 9.70461C28.8159 3.57667 18.2379 2.11764 11.7452 2.11764C11.2346 2.11764 10.7969 2.11764 10.4321 2.11764C4.66891 2.33649 1.53199 3.57667 0.583614 4.01438L1.53199 1.53403C17.0707 -2.04061 30.3479 2.7742 43.1144 7.44311C44.2087 7.80787 45.303 8.17263 46.3243 8.61034C45.4489 8.9751 43.844 9.70461 43.844 9.70461ZM68.5746 13.3522C61.4983 13.3522 54.422 11.1636 47.1268 8.53738C55.5162 4.8898 63.2491 1.60698 68.5746 1.60698C72.2951 1.60698 75.2861 4.59799 75.2861 8.31853C75.2861 12.4768 71.6386 13.3522 68.5746 13.3522Z" fill="white"/>
</svg>
