<svg width="20" height="20" viewBox="0 0 20 20" fill="none" xmlns="http://www.w3.org/2000/svg">
<g clip-path="url(#clip0_1723_3370)">
<path d="M10 12.0547C11.1326 12.0547 12.0508 11.1365 12.0508 10.0039C12.0508 8.87129 11.1326 7.95312 10 7.95312C8.86738 7.95312 7.94922 8.87129 7.94922 10.0039C7.94922 11.1365 8.86738 12.0547 10 12.0547Z" fill="#E47F46"/>
<path d="M10 0.234375C4.6066 0.234375 0.234375 4.6066 0.234375 10C0.234375 15.3934 4.6066 19.7656 10 19.7656C15.3934 19.7656 19.7656 15.3934 19.7656 10C19.7656 4.6066 15.3934 0.234375 10 0.234375ZM16.0335 12.482C15.9866 13.4105 15.7257 14.326 15.0491 14.9954C14.366 15.6712 13.4461 15.923 12.5087 15.9694H7.49133C6.55383 15.923 5.63406 15.6714 4.9509 14.9954C4.27426 14.326 4.0134 13.4105 3.96652 12.482V7.51797C4.0134 6.58953 4.2743 5.67398 4.9509 5.00453C5.63406 4.32875 6.55395 4.07695 7.49133 4.03059H12.5087C13.4462 4.07695 14.3659 4.32863 15.0491 5.00453C15.7257 5.67398 15.9866 6.58953 16.0335 7.51797L16.0335 12.482Z" fill="#E47F46"/>
<path d="M12.4458 5.16576C11.2237 5.13225 8.77757 5.13225 7.55546 5.16576C6.91949 5.18322 6.19851 5.34154 5.74539 5.82553C5.27453 6.32861 5.0966 6.93643 5.07855 7.61639C5.04683 8.80982 5.07855 12.3919 5.07855 12.3919C5.09921 13.0717 5.27453 13.6796 5.74539 14.1827C6.19851 14.6669 6.91949 14.825 7.55546 14.8425C8.77757 14.876 11.2237 14.876 12.4458 14.8425C13.0818 14.825 13.8027 14.6667 14.2559 14.1827C14.7267 13.6796 14.9046 13.0718 14.9227 12.3919V7.61639C14.9046 6.93643 14.7267 6.32861 14.2559 5.82553C13.8026 5.34139 13.0816 5.18322 12.4458 5.16576ZM10.0005 13.1828C9.37178 13.1828 8.7572 12.9964 8.23447 12.6471C7.71173 12.2978 7.30431 11.8014 7.06372 11.2206C6.82313 10.6397 6.76018 10.0006 6.88283 9.38399C7.00548 8.76738 7.30823 8.20098 7.75278 7.75643C8.19733 7.31188 8.76372 7.00914 9.38033 6.88649C9.99694 6.76384 10.6361 6.82679 11.2169 7.06738C11.7977 7.30796 12.2942 7.71539 12.6435 8.23812C12.9927 8.76086 13.1792 9.37543 13.1792 10.0041C13.1792 10.8472 12.8443 11.6557 12.2482 12.2518C11.652 12.8479 10.8435 13.1828 10.0005 13.1828ZM13.1927 7.48154C13.067 7.48151 12.9441 7.4442 12.8395 7.37433C12.735 7.30445 12.6535 7.20515 12.6055 7.08898C12.5574 6.97281 12.5448 6.84499 12.5693 6.72168C12.5939 6.59837 12.6544 6.4851 12.7434 6.39621C12.8323 6.30731 12.9456 6.24678 13.0689 6.22226C13.1922 6.19775 13.32 6.21034 13.4362 6.25847C13.5523 6.30659 13.6516 6.38807 13.7215 6.49262C13.7913 6.59716 13.8286 6.72007 13.8286 6.8458C13.8286 6.9293 13.8121 7.01198 13.7802 7.08912C13.7482 7.16627 13.7014 7.23636 13.6423 7.29539C13.5833 7.35443 13.5132 7.40125 13.436 7.43319C13.3589 7.46513 13.2762 7.48156 13.1927 7.48154Z" fill="#E47F46"/>
</g>
<defs>
<clipPath id="clip0_1723_3370">
<rect width="20" height="20" fill="white"/>
</clipPath>
</defs>
</svg>
