<svg width="28" height="28" viewBox="0 0 28 28" fill="none" xmlns="http://www.w3.org/2000/svg">
<path d="M25.8086 6.638C24.9307 7.02787 23.9877 7.29022 22.9979 7.40856C24.0088 6.80312 24.784 5.84451 25.1491 4.70151C24.2042 5.262 23.1566 5.6693 22.0411 5.88946C21.1486 4.93818 19.8771 4.34375 18.4699 4.34375C15.7675 4.34375 13.5769 6.53526 13.5769 9.23681C13.5769 9.62025 13.6209 9.99452 13.7035 10.3514C9.63695 10.1477 6.03183 8.1993 3.6174 5.23815C3.19727 5.96101 2.95601 6.80129 2.95601 7.69936C2.95601 9.39642 3.81922 10.8944 5.13192 11.7714C4.33017 11.7457 3.57521 11.5256 2.91564 11.1595C2.91564 11.1806 2.91564 11.1999 2.91564 11.221C2.91564 13.5923 4.6017 15.5701 6.84091 16.0187C6.43087 16.1306 5.99788 16.1902 5.55114 16.1902C5.2365 16.1902 4.92919 16.159 4.63106 16.103C5.25393 18.0469 7.06107 19.4623 9.20213 19.5018C7.528 20.8145 5.41813 21.597 3.1248 21.597C2.73034 21.597 2.34048 21.574 1.95703 21.5282C4.12286 22.9161 6.69414 23.7261 9.45807 23.7261C18.4589 23.7261 23.3795 16.27 23.3795 9.80372C23.3795 9.59181 23.3749 9.38083 23.3658 9.17076C24.3225 8.48001 25.1527 7.61863 25.8086 6.638Z" fill="#212121"/>
</svg>
