<svg width="16" height="16" viewBox="0 0 16 16" fill="none" xmlns="http://www.w3.org/2000/svg">
<path d="M7.25622 6.0144L6.53922 8.16615C6.49739 8.29809 6.49262 8.439 6.52544 8.57347C6.55826 8.70794 6.62741 8.83081 6.72533 8.92865C6.82324 9.02648 6.94616 9.09553 7.08066 9.12825C7.21516 9.16096 7.35606 9.15608 7.48797 9.11415L9.63972 8.39715C9.74982 8.36019 9.84992 8.29834 9.93222 8.2164L14.9842 3.1644C15.3148 2.83336 15.5006 2.38463 15.5006 1.91677C15.5006 1.44891 15.3148 1.00018 14.9842 0.669147C14.653 0.339119 14.2045 0.153809 13.737 0.153809C13.2694 0.153809 12.8209 0.339119 12.4897 0.669147L7.43772 5.7219C7.35536 5.80401 7.29323 5.90414 7.25622 6.0144Z" fill="#BDBDBD"/>
<path d="M14.75 5.40283C14.5511 5.40283 14.3603 5.48185 14.2197 5.6225C14.079 5.76316 14 5.95392 14 6.15283V11.4028C14 11.9996 13.7629 12.5719 13.341 12.9938C12.919 13.4158 12.3467 13.6528 11.75 13.6528H4.25C3.65326 13.6528 3.08097 13.4158 2.65901 12.9938C2.23705 12.5719 2 11.9996 2 11.4028V3.90283C2 3.3061 2.23705 2.7338 2.65901 2.31184C3.08097 1.88989 3.65326 1.65283 4.25 1.65283H9.5C9.69891 1.65283 9.88968 1.57381 10.0303 1.43316C10.171 1.29251 10.25 1.10174 10.25 0.902832C10.25 0.70392 10.171 0.513154 10.0303 0.372502C9.88968 0.23185 9.69891 0.152832 9.5 0.152832H4.25C3.2558 0.154023 2.30267 0.549494 1.59967 1.2525C0.896662 1.9555 0.501191 2.90864 0.5 3.90283V11.4028C0.501191 12.397 0.896662 13.3502 1.59967 14.0532C2.30267 14.7562 3.2558 15.1516 4.25 15.1528H11.75C12.7442 15.1516 13.6973 14.7562 14.4003 14.0532C15.1033 13.3502 15.4988 12.397 15.5 11.4028V6.15283C15.5 5.95392 15.421 5.76316 15.2803 5.6225C15.1397 5.48185 14.9489 5.40283 14.75 5.40283Z" fill="#BDBDBD"/>
</svg>
