<svg width="28" height="28" viewBox="0 0 28 28" fill="none" xmlns="http://www.w3.org/2000/svg">
<path d="M14.1206 3.95312C10.2807 3.95312 5.29669 4.91525 5.29669 4.91525L5.28415 4.92958C3.53523 5.20929 2.19531 6.71212 2.19531 8.53979V14.0438V14.0456V19.5478V19.5496C2.19702 20.4225 2.50984 21.2661 3.0776 21.9291C3.64537 22.5921 4.43088 23.031 5.2931 23.167L5.29669 23.1723C5.29669 23.1723 10.2807 24.1363 14.1206 24.1363C17.9606 24.1363 22.9446 23.1723 22.9446 23.1723L22.9464 23.1705C23.8096 23.0349 24.596 22.5956 25.1642 21.9319C25.7324 21.2681 26.0451 20.4233 26.046 19.5496V19.5478V14.0456V14.0438V8.53979C26.0447 7.66661 25.7321 6.8225 25.1643 6.15914C24.5965 5.49577 23.8107 5.05663 22.9482 4.92063L22.9446 4.91525C22.9446 4.91525 17.9606 3.95312 14.1206 3.95312ZM11.3686 9.82263L18.7073 14.0438L11.3686 18.265V9.82263Z" fill="#212121"/>
</svg>
